<svg width="11" height="25" viewBox="0 0 11 25" fill="none" xmlns="http://www.w3.org/2000/svg">
<path fill-rule="evenodd" clip-rule="evenodd" d="M0.36652 24.6089C0.77152 25.0959 1.42652 25.0959 1.83052 24.6089L10.3935 14.2901C10.5852 14.0627 10.7378 13.7889 10.8421 13.4855C10.9464 13.1821 11.0002 12.8553 11.0002 12.5252C11.0002 12.195 10.9464 11.8683 10.8421 11.5648C10.7378 11.2614 10.5852 10.9877 10.3935 10.7602L1.76852 0.36524C1.57277 0.132926 1.31355 0.00235055 1.0435 3.1427e-05C0.773443 -0.0022877 0.512807 0.123823 0.31452 0.352753C0.216291 0.465806 0.137696 0.602834 0.0836001 0.755353C0.0295044 0.907871 0.00106027 1.07263 2.90802e-05 1.23943C-0.00100211 1.40624 0.0254016 1.57153 0.0776052 1.72507C0.129809 1.87861 0.206701 2.01714 0.30352 2.13207L8.19752 11.643C8.29344 11.7567 8.36982 11.8937 8.42201 12.0454C8.47421 12.1972 8.50112 12.3606 8.50112 12.5258C8.50112 12.691 8.47421 12.8544 8.42201 13.0062C8.36982 13.1579 8.29344 13.2948 8.19752 13.4086L0.36652 22.8446C0.27063 22.9582 0.194268 23.095 0.142085 23.2467C0.089903 23.3984 0.0629923 23.5617 0.0629923 23.7268C0.0629923 23.8918 0.089903 24.0552 0.142085 24.2068C0.194268 24.3585 0.27063 24.4953 0.36652 24.6089Z" fill="#EEF0E6"/>
</svg>
