<?xml version="1.0" encoding="UTF-8"?>
<!-- Generator: visioncortex VTracer 0.6.4 -->
<svg version="1.1" xmlns="http://www.w3.org/2000/svg" width="748" height="648">
<path d="M0 0 C3.70946206 -0.04461552 6.76867261 0.82704647 10.31640625 1.9140625 C17.0770342 3.63159763 24.2003855 2.8197268 31.10546875 2.50585938 C40.10206655 2.30115266 46.23796374 4.21996357 53.31640625 9.8046875 C53.87972656 10.41699219 54.44304687 11.02929688 55.0234375 11.66015625 C55.66796875 12.34464844 56.3125 13.02914062 56.9765625 13.734375 C58.19290558 15.11681534 59.39175929 16.51489277 60.5703125 17.9296875 C64.34696157 22.45993398 67.89255232 25.42400011 73.11328125 28.23046875 C74.8359375 29.84765625 74.8359375 29.84765625 75.33984375 32.69140625 C74.71978267 36.57519969 73.39239424 38.26675314 70.8359375 41.22265625 C69.7221875 42.53363281 69.7221875 42.53363281 68.5859375 43.87109375 C68.0084375 44.52335937 67.4309375 45.175625 66.8359375 45.84765625 C67.4959375 46.17765625 68.1559375 46.50765625 68.8359375 46.84765625 C67.88476616 48.02016935 66.92476741 49.1855264 65.9609375 50.34765625 C65.42726563 50.99734375 64.89359375 51.64703125 64.34375 52.31640625 C63.84617187 52.82171875 63.34859375 53.32703125 62.8359375 53.84765625 C62.1759375 53.84765625 61.5159375 53.84765625 60.8359375 53.84765625 C60.5678125 54.44578125 60.2996875 55.04390625 60.0234375 55.66015625 C58.8149484 57.88632038 57.80063389 59.26078609 55.8359375 60.84765625 C55.23007812 60.9353125 54.62421875 61.02296875 54 61.11328125 C50.80495165 62.19752148 49.61593773 64.25582142 47.5859375 66.91015625 C44.77866742 70.47676988 41.98042091 73.82402923 38.7109375 76.97265625 C35.13692457 80.41800471 32.19580401 84.14756096 29.28125 88.16015625 C28.80429687 88.71703125 28.32734375 89.27390625 27.8359375 89.84765625 C27.1759375 89.84765625 26.5159375 89.84765625 25.8359375 89.84765625 C25.5678125 90.42515625 25.2996875 91.00265625 25.0234375 91.59765625 C23.8359375 93.84765625 23.8359375 93.84765625 22.2734375 95.84765625 C20.72619085 97.68156932 20.72619085 97.68156932 20.56640625 99.59765625 C19.46403435 102.99319751 17.0685609 105.25168053 14.7109375 107.84765625 C9.66560776 113.57035047 4.96063895 119.48345686 0.3984375 125.59765625 C-0.54008057 126.85509644 -0.54008057 126.85509644 -1.49755859 128.13793945 C-4.67765647 132.42513703 -7.81209489 136.74134416 -10.90234375 141.09375 C-11.494104 141.92487305 -12.08586426 142.75599609 -12.69555664 143.61230469 C-13.81809486 145.1949257 -14.93350682 146.78263218 -16.04077148 148.37597656 C-16.54036377 149.08206055 -17.03995605 149.78814453 -17.5546875 150.515625 C-17.98813477 151.13719482 -18.42158203 151.75876465 -18.86816406 152.39916992 C-20.1640625 153.84765625 -20.1640625 153.84765625 -23.1640625 154.84765625 C-24.50611584 156.43173294 -24.50611584 156.43173294 -25.6875 158.41796875 C-26.1515625 159.15015625 -26.615625 159.88234375 -27.09375 160.63671875 C-27.57070313 161.40757812 -28.04765625 162.1784375 -28.5390625 162.97265625 C-29.4827263 164.47629638 -30.42802503 165.97891175 -31.375 167.48046875 C-31.83777344 168.21571777 -32.30054688 168.9509668 -32.77734375 169.70849609 C-34.08939163 171.73246854 -35.45900688 173.6923195 -36.875 175.64453125 C-38.60720919 178.06844172 -40.10226991 180.3157204 -41.4140625 182.97265625 C-41.72859375 183.59398437 -42.043125 184.2153125 -42.3671875 184.85546875 C-43.24841614 186.84764673 -43.24841614 186.84764673 -43.52685547 189.10009766 C-44.2814343 192.35374905 -45.5753671 194.85821157 -47.15625 197.80078125 C-47.77338867 198.96383789 -48.39052734 200.12689453 -49.02636719 201.32519531 C-49.35455444 201.93915161 -49.6827417 202.55310791 -50.02087402 203.18566895 C-65.91410586 233.03049453 -77.82054383 264.07283982 -86.1640625 296.84765625 C-87.1540625 296.51765625 -88.1440625 296.18765625 -89.1640625 295.84765625 C-89.21941162 296.44827881 -89.27476074 297.04890137 -89.33178711 297.66772461 C-89.58377032 300.37398756 -89.8425742 303.07955509 -90.1015625 305.78515625 C-90.18857422 306.73068359 -90.27558594 307.67621094 -90.36523438 308.65039062 C-90.49575195 309.99907227 -90.49575195 309.99907227 -90.62890625 311.375 C-90.7074585 312.20765381 -90.78601074 313.04030762 -90.86694336 313.89819336 C-91.1640625 315.84765625 -91.1640625 315.84765625 -92.1640625 316.84765625 C-92.30830738 318.23787202 -92.39093439 319.63462926 -92.4453125 321.03125 C-92.48269531 321.87623047 -92.52007812 322.72121094 -92.55859375 323.59179688 C-92.59339844 324.48060547 -92.62820313 325.36941406 -92.6640625 326.28515625 C-92.73284526 328.03402165 -92.80557433 329.78273763 -92.8828125 331.53125 C-92.91310547 332.31040771 -92.94339844 333.08956543 -92.97460938 333.89233398 C-93.1640625 335.84765625 -93.1640625 335.84765625 -94.1640625 337.84765625 C-94.38874081 339.3843449 -94.57203055 340.92733679 -94.7265625 342.47265625 C-94.85224609 343.69855469 -94.85224609 343.69855469 -94.98046875 344.94921875 C-95.04105469 345.57570313 -95.10164063 346.2021875 -95.1640625 346.84765625 C-96.1540625 346.84765625 -97.1440625 346.84765625 -98.1640625 346.84765625 C-98.14835205 347.53279297 -98.1326416 348.21792969 -98.11645508 348.92382812 C-98.05362067 352.06501828 -98.01491901 355.20607564 -97.9765625 358.34765625 C-97.95142578 359.4253125 -97.92628906 360.50296875 -97.90039062 361.61328125 C-97.80605939 371.92682936 -100.29444402 379.74458703 -107.5390625 387.27734375 C-112.462342 392.44143584 -115.14309587 398.5588406 -118.23046875 404.90625 C-123.5944466 415.91955153 -130.21232206 426.78949677 -141.33984375 432.71484375 C-145.99530716 435.60581675 -147.67470745 438.57088873 -149.1015625 443.78515625 C-150.63299385 448.70846875 -152.00471739 451.60133812 -156.1640625 454.84765625 C-157.4325 456.02328125 -157.4325 456.02328125 -158.7265625 457.22265625 C-161.1640625 458.84765625 -161.1640625 458.84765625 -163.4140625 458.72265625 C-165.1640625 457.84765625 -165.1640625 457.84765625 -166.1640625 455.84765625 C-166.56988977 449.86170396 -165.8873093 446.18521999 -163.1640625 440.84765625 C-162.8340625 440.51765625 -162.5040625 440.18765625 -162.1640625 439.84765625 C-163.1540625 439.18765625 -164.1440625 438.52765625 -165.1640625 437.84765625 C-165.504375 436.70296875 -165.504375 436.70296875 -165.8515625 435.53515625 C-167.59205941 431.97128162 -169.85129498 430.96509473 -173.22265625 429.03515625 C-175.1640625 427.84765625 -175.1640625 427.84765625 -177.1015625 425.78515625 C-181.3021402 421.83915902 -186.80209887 420.01172608 -192.4140625 419.09765625 C-197.02161871 417.56180418 -197.72502561 416.05077095 -199.953125 411.9609375 C-201.91747717 408.53282613 -204.09083865 406.34465063 -207.1640625 403.84765625 C-209.8074399 403.75960479 -209.8074399 403.75960479 -212.1640625 404.84765625 C-215.26433173 405.78713177 -217.05784048 405.84608476 -220.1640625 404.84765625 C-217.1640625 398.84765625 -217.1640625 398.84765625 -215.37890625 398.1640625 C-214.62738281 397.91527344 -213.87585938 397.66648437 -213.1015625 397.41015625 C-207.66884251 395.11136665 -205.30297049 391.47589402 -202.078125 386.68359375 C-200.30770369 384.06047973 -198.46015366 381.63443179 -196.4140625 379.22265625 C-195.61742187 378.27519531 -195.61742187 378.27519531 -194.8046875 377.30859375 C-192.94370905 375.65143675 -191.59840265 375.23926749 -189.1640625 374.84765625 C-189.0403125 373.83703125 -188.9165625 372.82640625 -188.7890625 371.78515625 C-187.20589445 366.12934576 -181.9464863 363.66730887 -177.1640625 360.84765625 C-175.17110424 359.83369503 -173.17426496 358.82698565 -171.1640625 357.84765625 C-170.03764297 355.5948172 -170.04335273 354.19405319 -169.9296875 351.6953125 C-169.38195688 346.38890673 -167.22325366 343.33891542 -163.9140625 339.28515625 C-162.90667122 337.99127998 -161.90143545 336.69572239 -160.8984375 335.3984375 C-160.42083984 334.78822754 -159.94324219 334.17801758 -159.45117188 333.54931641 C-157.85996392 331.44561394 -156.49320739 329.24943221 -155.1640625 326.97265625 C-153.1640625 323.84765625 -153.1640625 323.84765625 -150.1640625 322.84765625 C-149.6896875 321.89890625 -149.2153125 320.95015625 -148.7265625 319.97265625 C-147.1640625 316.84765625 -147.1640625 316.84765625 -145.16015625 315.4765625 C-142.5849619 313.37508296 -142.35331939 311.87517686 -141.6640625 308.66015625 C-140.62956231 304.36387133 -139.35146864 300.80356959 -137.12890625 296.9921875 C-135.99751827 294.65638303 -135.99751827 294.65638303 -135.28930664 291.18408203 C-134.28183618 287.07529371 -132.84022326 283.21299368 -131.1953125 279.3203125 C-130.91433716 278.64592636 -130.63336182 277.97154022 -130.34387207 277.27671814 C-129.75505424 275.86809556 -129.16334999 274.46067626 -128.56884766 273.05444336 C-127.65762755 270.8949058 -126.76001044 268.7300419 -125.86328125 266.56445312 C-125.28726233 265.19106876 -124.71046762 263.81800947 -124.1328125 262.4453125 C-123.86505005 261.79748306 -123.5972876 261.14965363 -123.32141113 260.48219299 C-121.39372617 255.96248808 -121.39372617 255.96248808 -119.1640625 254.84765625 C-118.2314111 252.99613617 -118.2314111 252.99613617 -117.4296875 250.71875 C-116.94363037 249.42432983 -116.94363037 249.42432983 -116.44775391 248.10375977 C-116.10663574 247.17362061 -115.76551758 246.24348145 -115.4140625 245.28515625 C-115.06134277 244.34019287 -114.70862305 243.39522949 -114.34521484 242.42163086 C-113.62475997 240.49015357 -112.90715349 238.55761145 -112.19238281 236.62402344 C-111.26275503 234.1141167 -110.32242921 231.60869905 -109.375 229.10546875 C-107.95798117 225.35764864 -106.54252548 221.60989438 -105.1640625 217.84765625 C-104.80054688 216.89761719 -104.43703125 215.94757813 -104.0625 214.96875 C-103.31848216 212.38409673 -103.03261312 210.46903583 -102.859375 207.8359375 C-102.28012422 201.83404689 -100.00298838 196.48911841 -97.78964233 190.92279053 C-96.50151472 187.6832766 -95.24744793 184.43054133 -93.98828125 181.1796875 C-93.73840958 180.53753296 -93.4885379 179.89537842 -93.23109436 179.23376465 C-91.30626643 174.2704449 -89.54591241 169.26806607 -87.8515625 164.22265625 C-84.5170258 154.42872508 -80.67652557 144.83260264 -76.8515625 135.22265625 C-76.53665863 134.42688171 -76.22175476 133.63110718 -75.89730835 132.81121826 C-74.99593825 130.53713961 -74.08716804 128.26617373 -73.17578125 125.99609375 C-72.76525513 124.958479 -72.76525513 124.958479 -72.34643555 123.89990234 C-71.20466262 121.07972323 -70.33871271 119.02230646 -68.1640625 116.84765625 C-67.1740625 115.36265625 -67.1740625 115.36265625 -66.1640625 113.84765625 C-65.5040625 113.84765625 -64.8440625 113.84765625 -64.1640625 113.84765625 C-64.1640625 112.85765625 -64.1640625 111.86765625 -64.1640625 110.84765625 C-63.5040625 110.84765625 -62.8440625 110.84765625 -62.1640625 110.84765625 C-62.4940625 109.85765625 -62.8240625 108.86765625 -63.1640625 107.84765625 C-62.61010742 105.88085938 -62.61010742 105.88085938 -61.64453125 103.62890625 C-61.10735474 102.36796143 -61.10735474 102.36796143 -60.55932617 101.08154297 C-60.16076416 100.17936035 -59.76220215 99.27717773 -59.3515625 98.34765625 C-58.74501831 96.94990967 -58.74501831 96.94990967 -58.1262207 95.52392578 C-54.95299479 88.3363047 -51.4408311 81.36809369 -47.6159668 74.50585938 C-45.46388655 70.58929405 -43.72349352 66.76691379 -42.2734375 62.53515625 C-40.08660707 56.28629238 -37.01588118 50.70170959 -33.7265625 44.97265625 C-33.16646484 43.9671875 -32.60636719 42.96171875 -32.02929688 41.92578125 C-29.16270371 36.88164766 -26.43641871 32.8303612 -22.1640625 28.84765625 C-20.96661728 27.04760901 -19.81916504 25.21320304 -18.7265625 23.34765625 C-16.67114813 20.00483331 -15.23580446 17.90594659 -12.1640625 15.41015625 C-8.88980493 12.61339457 -7.78142413 10.34164195 -5.8515625 6.53515625 C-2.82823017 1.10780857 -2.82823017 1.10780857 0 0 Z " fill="#4BBF72" transform="translate(547.1640625,155.15234375)"/>
<path d="M0 0 C4.00992215 1.51317817 4.54664503 2.42744335 6.3125 6.25 C6.75390625 9.703125 6.75390625 9.703125 6.875 13.5 C7.13496236 23.59136644 7.13496236 23.59136644 11 32.6875 C13.96213391 34.68894183 16.849025 35.45073654 20.3125 36.25 C21.09691153 42.81492112 21.42164408 48.71837378 20.3125 55.25 C21.9625 55.25 23.6125 55.25 25.3125 55.25 C25.6425 56.57 25.9725 57.89 26.3125 59.25 C27.6325 59.58 28.9525 59.91 30.3125 60.25 C30.3125 61.24 30.3125 62.23 30.3125 63.25 C31.22773438 63.27578125 32.14296875 63.3015625 33.0859375 63.328125 C34.86871094 63.41320312 34.86871094 63.41320312 36.6875 63.5 C37.87085938 63.54640625 39.05421875 63.5928125 40.2734375 63.640625 C43.3125 64.25 43.3125 64.25 44.83203125 65.984375 C45.46629152 68.97519581 44.83668644 70.46099542 43.625 73.25 C43.09326172 74.5184375 43.09326172 74.5184375 42.55078125 75.8125 C41.3405277 78.19482876 39.94042262 80.14039068 38.3125 82.25 C37.755625 83.5184375 37.755625 83.5184375 37.1875 84.8125 C34.67528155 88.07838399 32.193908 88.45905476 28.2734375 89.37890625 C27.62632812 89.66636719 26.97921875 89.95382813 26.3125 90.25 C25.47153429 92.27169405 25.47153429 92.27169405 25.3125 94.25 C24.6525 94.25 23.9925 94.25 23.3125 94.25 C22.61781421 99.08792195 21.92408236 103.92597942 21.23120117 108.76416016 C20.99578081 110.40710061 20.76010822 112.05000494 20.52416992 113.69287109 C20.18340415 116.06598411 19.84357157 118.43922926 19.50390625 120.8125 C19.39969864 121.53679199 19.29549103 122.26108398 19.18812561 123.00732422 C18.69649551 126.44836371 18.226225 129.88998413 17.80053711 133.33984375 C17.01917354 139.60013332 16.06879282 145.58638176 14.44921875 151.69140625 C14.26157455 152.3990361 14.07393036 153.10666595 13.88059998 153.83573914 C13.26000038 156.16306247 12.63123613 158.48804002 12 160.8125 C11.6716214 162.02492371 11.6716214 162.02492371 11.33660889 163.26184082 C-2.08609495 212.63007006 -19.60322915 260.64420087 -40.6875 307.25 C-41.17750488 308.33829102 -41.66750977 309.42658203 -42.17236328 310.54785156 C-48.13561694 323.76246767 -54.31608805 336.78822126 -61.22412109 349.53515625 C-62.62601657 352.13593665 -64.01269035 354.74442902 -65.39427185 357.35604858 C-66.70457143 359.83254676 -68.01884854 362.30692331 -69.33358765 364.78106689 C-70.27756097 366.55918693 -71.21855025 368.33889016 -72.15942383 370.11865234 C-76.38115064 378.02893074 -80.90788573 385.66805703 -85.6875 393.25 C-87.47916667 393.16666667 -89.27083333 393.08333333 -91.0625 393 C-92.06023437 392.95359375 -93.05796875 392.9071875 -94.0859375 392.859375 C-96.6875 392.25 -96.6875 392.25 -98.078125 390.6953125 C-99.10744159 386.56484979 -98.33062905 382.43959371 -97.7890625 378.26953125 C-97.25084529 372.77350547 -98.66511873 370.67603399 -101.6875 366.25 C-103.62035002 359.58007004 -102.1844408 354.14294645 -99.8125 347.8125 C-99.53019531 347.01134766 -99.24789062 346.21019531 -98.95703125 345.38476562 C-96.99380466 339.86260933 -96.99380466 339.86260933 -95.6875 337.25 C-95.55435808 333.78830997 -95.56482116 330.75373712 -96.38671875 327.37890625 C-96.77198593 323.37112686 -95.75310185 321.81264242 -93.625 318.4375 C-92.74134766 317.00470703 -92.74134766 317.00470703 -91.83984375 315.54296875 C-90.20312019 313.03887082 -88.55128171 310.54797751 -86.88671875 308.0625 C-71.0073845 284.30192423 -54.66601219 258.79283221 -45.03515625 231.7109375 C-43.6875 228.25 -43.6875 228.25 -41.6875 227.25 C-39.35529145 221.03077719 -38.74905063 214.84738924 -40.4375 208.375 C-41.91182803 205.86864234 -43.11367394 204.61261379 -45.6875 203.25 C-46.26371094 203.39566406 -46.83992188 203.54132813 -47.43359375 203.69140625 C-50.32712594 204.40852081 -52.89987102 204.19401705 -55.875 204.0625 C-63.62100927 204.0625 -68.25914405 205.33750952 -74.1796875 210.3671875 C-87.2725353 223.4600353 -93.52312926 243.35493787 -96.6875 261.25 C-97.6775 261.25 -98.6675 261.25 -99.6875 261.25 C-99.790625 262.549375 -99.89375 263.84875 -100 265.1875 C-100.39678438 269.30705549 -101.05260987 273.31725264 -101.83129883 277.37646484 C-103.20677928 284.55783623 -103.97769207 291.26199971 -103.6953125 298.61328125 C-103.6875 301.25 -103.6875 301.25 -104.6875 305.25 C-113.9275 305.25 -123.1675 305.25 -132.6875 305.25 C-135.96899337 295.4055199 -129.80433112 283.71380503 -125.875 274.8125 C-125.29326013 273.46428021 -124.71288456 272.11547101 -124.13378906 270.76611328 C-122.63281859 267.27818785 -121.11436661 263.79816984 -119.5914917 260.31976318 C-118.1348835 256.98473917 -116.6947559 253.64263615 -115.25390625 250.30078125 C-113.07152178 245.24402026 -110.88139152 240.19070561 -108.68359375 235.140625 C-106.10958161 229.22421464 -103.54587013 223.30357455 -101 217.375 C-100.47515015 216.15671509 -100.47515015 216.15671509 -99.93969727 214.91381836 C-97.92648042 210.2191027 -95.97146821 205.50449391 -94.0546875 200.76953125 C-93.60826904 199.67431152 -93.16185059 198.5790918 -92.7019043 197.45068359 C-91.83780714 195.32565645 -90.98205824 193.19720935 -90.13598633 191.06494141 C-89.74435303 190.10378418 -89.35271973 189.14262695 -88.94921875 188.15234375 C-88.43814575 186.87605103 -88.43814575 186.87605103 -87.91674805 185.57397461 C-86.52556197 182.94384546 -84.79353193 181.33366016 -82.6875 179.25 C-81.41160373 177.06655311 -81.41160373 177.06655311 -80.43359375 174.6953125 C-80.05396484 173.83292969 -79.67433594 172.97054687 -79.28320312 172.08203125 C-78.90099609 171.18871094 -78.51878906 170.29539063 -78.125 169.375 C-77.35393151 167.60630532 -76.58182066 165.83806464 -75.80859375 164.0703125 C-75.44523926 163.23725586 -75.08188477 162.40419922 -74.70751953 161.54589844 C-73.02481468 157.75840287 -71.31578693 154.14755276 -68.9375 150.75 C-67.38567021 148.28229236 -67.38567021 148.28229236 -68.234375 145.45263672 C-68.76591657 141.69576047 -68.15988712 139.9730986 -66.6875 136.5078125 C-66.21981201 135.37899658 -65.75212402 134.25018066 -65.27026367 133.0871582 C-65.01328705 132.4848941 -64.75631042 131.88263 -64.49154663 131.26211548 C-63.08258934 127.95526111 -61.72579385 124.62697798 -60.36328125 121.30078125 C-60.06940018 120.58643417 -59.7755191 119.8720871 -59.47273254 119.13609314 C-55.74170417 110.02067921 -52.31429753 100.79096221 -48.875 91.5625 C-48.25980477 89.91616376 -47.64457118 88.26984185 -47.02929688 86.62353516 C-44.03391878 78.59825219 -41.06496248 70.56344868 -38.109375 62.5234375 C-35.04239299 54.18274902 -31.91196695 45.86758332 -28.75 37.5625 C-28.25186497 36.25198663 -27.75381806 34.94143976 -27.25585938 33.63085938 C-26.06726225 30.50357955 -24.87781099 27.3766278 -23.6875 24.25 C-23.0275 24.25 -22.3675 24.25 -21.6875 24.25 C-22.0175 26.23 -22.3475 28.21 -22.6875 30.25 C-22.43355469 29.73050781 -22.17960937 29.21101563 -21.91796875 28.67578125 C-20.38556493 25.57079823 -18.85520199 22.52735329 -17.0625 19.5625 C-15.65332995 17.19253218 -14.64616977 14.831034 -13.6875 12.25 C-13.0275 12.25 -12.3675 12.25 -11.6875 12.25 C-11.48125 11.569375 -11.275 10.88875 -11.0625 10.1875 C-8.57157832 4.86598551 -6.19108861 0.41973482 0 0 Z M-16.06835938 78.62255859 C-19.07792384 81.64755207 -21.48829846 85.07972798 -23.9375 88.5625 C-24.5032373 89.35938232 -25.06897461 90.15626465 -25.65185547 90.97729492 C-48.02622173 120.92867395 -48.02622173 120.92867395 -57.6875 155.25 C-52.27609901 157.51585756 -47.49814772 157.45269872 -41.75 157.3125 C-31.96483695 157.11636087 -31.96483695 157.11636087 -27.7265625 157.86328125 C-24.56446604 158.61109491 -24.56446604 158.61109491 -22 156.375 C-16.98289784 149.59513221 -14.99695958 142.50304132 -13.6875 134.25 C-14.3475 134.25 -15.0075 134.25 -15.6875 134.25 C-15.22110107 133.86730957 -14.75470215 133.48461914 -14.27416992 133.09033203 C-12.23259902 130.72237365 -11.90887122 128.86258357 -11.30078125 125.8046875 C-10.9769043 124.18820313 -10.9769043 124.18820313 -10.64648438 122.5390625 C-10.43314453 121.41242188 -10.21980469 120.28578125 -10 119.125 C-9.77505859 118.0215625 -9.55011719 116.918125 -9.31835938 115.78125 C-8.08841784 109.48574377 -7.43672883 103.66160889 -7.6875 97.25 C-8.3475 97.25 -9.0075 97.25 -9.6875 97.25 C-9.3575 96.59 -9.0275 95.93 -8.6875 95.25 C-8.60377341 93.72851674 -8.58019973 92.20344222 -8.58984375 90.6796875 C-8.59306641 89.78378906 -8.59628906 88.88789063 -8.59960938 87.96484375 C-8.60798828 87.02769531 -8.61636719 86.09054688 -8.625 85.125 C-8.62951172 84.18011719 -8.63402344 83.23523438 -8.63867188 82.26171875 C-8.65047643 79.92441613 -8.66694241 77.58723939 -8.6875 75.25 C-12.2533525 75.25 -13.4535818 76.32455278 -16.06835938 78.62255859 Z " fill="#4BBE71" transform="translate(418.6875,48.75)"/>
<path d="M0 0 C-0.1546875 1.8871875 -0.1546875 1.8871875 -0.3125 3.8125 C-0.35450262 9.11323127 1.52024442 12.96447661 3.90625 17.6171875 C5 20 5 20 5 23 C4.401875 23.556875 3.80375 24.11375 3.1875 24.6875 C-1.51877653 29.66270662 -2.12008977 34.35039707 -2.00683594 40.98339844 C-1.96142496 42.38602216 -1.8938762 43.78814458 -1.80175781 45.18847656 C-1.57367616 50.45485632 -2.98340615 52.81121223 -6 57 C-6.48533203 58.7325 -6.48533203 58.7325 -6.98046875 60.5 C-8.13745843 64.47188795 -9.7766616 66.74615826 -12.3125 70 C-16.97195312 76.19760066 -20.80545217 82.723582 -24.5625 89.5 C-36.78001833 111.44779741 -48.39139389 124.31709503 -70.20703125 136.80859375 C-72.14994463 137.88534821 -72.14994463 137.88534821 -73 140 C-73.75004635 147.11101635 -72.3589282 153.55288237 -70.55859375 160.41015625 C-70.37425781 161.26480469 -70.18992188 162.11945313 -70 163 C-70.33 163.33 -70.66 163.66 -71 164 C-71.01435998 166.52869612 -70.96862228 169.03250573 -70.88671875 171.55859375 C-70.11136124 205.16121677 -70.11136124 205.16121677 -77 219 C-77.66 219 -78.32 219 -79 219 C-79.3403125 220.8871875 -79.3403125 220.8871875 -79.6875 222.8125 C-80.5 225.0390625 -80.5 225.0390625 -82 227 C-85.21351989 228.16936418 -88.33919272 228.71359586 -91.70703125 229.29296875 C-95.58447834 230.12549298 -98.06241549 231.56945672 -101.25390625 233.83203125 C-103 235 -103 235 -106.3125 236.1875 C-112.03090678 238.45628784 -116.83015595 243.61372806 -121 248 C-121.33 248.99 -121.66 249.98 -122 251 C-129.75 251.125 -129.75 251.125 -132 250 C-133.95549256 249.87742539 -135.91570618 249.82447612 -137.875 249.8125 C-138.92429687 249.79832031 -139.97359375 249.78414062 -141.0546875 249.76953125 C-144.00840309 250.00065754 -145.42384598 250.68024897 -148 252 C-150.2890625 252.08203125 -150.2890625 252.08203125 -152.625 251.8125 C-153.78902344 251.69841797 -153.78902344 251.69841797 -154.9765625 251.58203125 C-157 251 -157 251 -159 248 C-159.23046875 245.22265625 -159.23046875 245.22265625 -159.1875 242.0625 C-159.18105469 241.02222656 -159.17460937 239.98195313 -159.16796875 238.91015625 C-159.0241793 236.41892051 -158.85205333 234.33907633 -158 232 C-157.34 231.67 -156.68 231.34 -156 231 C-157.65 230.67 -159.3 230.34 -161 230 C-161 230.66 -161 231.32 -161 232 C-166.53936259 235.22290187 -171.49920534 237.56331735 -178 236 C-178.639375 235.195625 -179.27875 234.39125 -179.9375 233.5625 C-181.72844622 230.79369161 -181.72844622 230.79369161 -184.45703125 230.4453125 C-186.97635594 230.21275945 -189.47085547 230.05309273 -192 230 C-192.33 227.03 -192.66 224.06 -193 221 C-194.14082031 220.63648438 -194.14082031 220.63648438 -195.3046875 220.265625 C-198.40109652 218.81165903 -199.33803626 217.62085979 -201.125 214.75 C-201.87716797 213.5434375 -201.87716797 213.5434375 -202.64453125 212.3125 C-208.53373635 202.26521061 -208.53373635 202.26521061 -207.66796875 196.96875 C-206.07103211 190.95190485 -203.13741545 187.98644217 -198.609375 183.86328125 C-196.61869765 181.96888966 -196.61869765 181.96888966 -197 178.5 C-197.33 177.675 -197.66 176.85 -198 176 C-197.01 175.67 -196.02 175.34 -195 175 C-194.07895841 172.51719223 -193.53897531 170.02350353 -192.94140625 167.4453125 C-191.81274115 164.51359318 -190.66308354 163.59683947 -188 162 C-186.7625 161.566875 -186.7625 161.566875 -185.5 161.125 C-182.34312229 159.70440503 -180.98052288 157.78740257 -179 155 C-179.66 155 -180.32 155 -181 155 C-181 154.34 -181 153.68 -181 153 C-176.30013026 150.155342 -172.53693435 149.62583942 -167.171875 149.50390625 C-164.80789432 149.22247261 -164.80789432 149.22247261 -163.703125 146.96484375 C-163.47109375 146.31644531 -163.2390625 145.66804687 -163 145 C-161.1128125 144.9690625 -161.1128125 144.9690625 -159.1875 144.9375 C-158.47980469 144.92589844 -157.77210938 144.91429687 -157.04296875 144.90234375 C-155 145 -155 145 -152 146 C-151.80664062 144.99839844 -151.61328125 143.99679688 -151.4140625 142.96484375 C-151.15119951 141.62236492 -150.88816974 140.27991873 -150.625 138.9375 C-150.49867188 138.28072266 -150.37234375 137.62394531 -150.2421875 136.94726562 C-148.11755173 126.16473909 -148.11755173 126.16473909 -145.9453125 121.95703125 C-142.9861906 115.83091525 -142.26450854 106.7665214 -143 100 C-143.9793879 98.97980427 -144.97895449 97.97850195 -146 97 C-146.1875 93.8125 -146.1875 93.8125 -146 91 C-148.31 90.34 -150.62 89.68 -153 89 C-152.91266424 87.39482903 -152.80447776 85.79078338 -152.6875 84.1875 C-152.62949219 83.29417969 -152.57148438 82.40085937 -152.51171875 81.48046875 C-151.9255137 78.63894046 -151.29965877 77.7179484 -149 76 C-147.96875 75.690625 -146.9375 75.38125 -145.875 75.0625 C-144.92625 74.711875 -143.9775 74.36125 -143 74 C-142.27749876 71.9809696 -142.27749876 71.9809696 -142 70 C-142.56589844 69.80664062 -143.13179688 69.61328125 -143.71484375 69.4140625 C-144.44832031 69.15367188 -145.18179688 68.89328125 -145.9375 68.625 C-146.66839844 68.36976562 -147.39929688 68.11453125 -148.15234375 67.8515625 C-150 67 -150 67 -151 65 C-150.66015625 63.0546875 -150.66015625 63.0546875 -150.0625 60.875 C-149.77052734 59.78832031 -149.77052734 59.78832031 -149.47265625 58.6796875 C-149.23869141 57.84824219 -149.23869141 57.84824219 -149 57 C-137.44897324 54.84380834 -137.44897324 54.84380834 -132.5 55.125 C-128.92254351 55.345593 -128.92254351 55.345593 -126.5 53 C-126.005 52.34 -125.51 51.68 -125 51 C-123.35 51.66 -121.7 52.32 -120 53 C-119.608125 52.34 -119.21625 51.68 -118.8125 51 C-117 49 -117 49 -114.5625 48.4375 C-112 49 -112 49 -109.75 51.25 C-106.58177394 56.22864096 -106.99320559 59.18296563 -108 65 C-106.7625 65.103125 -105.525 65.20625 -104.25 65.3125 C-100.58924746 65.74355522 -98.92904242 66.77796782 -96 69 C-93.15062329 68.77504921 -90.82301244 67.93843911 -88.125 67 C-85 66 -85 66 -81.8125 65.8125 C-73.31253934 64.00103297 -66.84799267 58.43259934 -61.50390625 51.80078125 C-59.59082616 49.51005419 -57.40744759 47.75087097 -55 46 C-55.55429688 45.68546875 -56.10859375 45.3709375 -56.6796875 45.046875 C-57.40414062 44.61890625 -58.12859375 44.1909375 -58.875 43.75 C-59.95394531 43.12351562 -59.95394531 43.12351562 -61.0546875 42.484375 C-63.27956535 40.78667704 -64.05306413 39.61742785 -65 37 C-65.23828125 34.81640625 -65.23828125 34.81640625 -65.3125 32.5625 C-65.65061578 28.96186353 -65.96739625 28.04347166 -68.25 25 C-70.99308075 23.00503218 -72.6570446 22.28653903 -76 22 C-76 20.35 -76 18.7 -76 17 C-74.35 16.67 -72.7 16.34 -71 16 C-71 16.66 -71 17.32 -71 18 C-67.7 18.66 -64.4 19.32 -61 20 C-61 20.66 -61 21.32 -61 22 C-60.03900391 21.83951172 -60.03900391 21.83951172 -59.05859375 21.67578125 C-52.97887266 20.83313734 -49.40813748 21.06079485 -44 24 C-43.855625 23.360625 -43.71125 22.72125 -43.5625 22.0625 C-43 20 -43 20 -42 19 C-38.66962553 18.75531943 -35.34026286 18.61572995 -32.00390625 18.4765625 C-31.01261719 18.31929687 -30.02132812 18.16203125 -29 18 C-28.01 16.515 -28.01 16.515 -27 15 C-24.90625 14.26171875 -24.90625 14.26171875 -22.5 13.6875 C-20.08265104 13.00408195 -20.08265104 13.00408195 -18 12 C-16.48762261 9.21316523 -16.48762261 9.21316523 -16 6 C-13.64285714 0.32142857 -13.64285714 0.32142857 -11.25 -0.875 C-2.7 -1.35 -2.7 -1.35 0 0 Z M-89.140625 89.30859375 C-95.10482681 97.94165058 -99.20038425 108.01077637 -102.9921875 117.7421875 C-104 120 -104 120 -106 122 C-106.33333333 125 -106.33333333 125 -106 128 C-104.03989484 130.383254 -104.03989484 130.383254 -100.375 130.35546875 C-95.60823079 130.22963121 -92.12930062 128.56256793 -88 126.3125 C-87.30519531 125.94817871 -86.61039063 125.58385742 -85.89453125 125.20849609 C-81.12366136 122.68096441 -76.40968976 120.12353025 -72 117 C-72 116.34 -72 115.68 -72 115 C-71.2575 114.7525 -70.515 114.505 -69.75 114.25 C-65.86206135 112.48275516 -63.77707969 110.84307362 -62.0859375 106.83203125 C-59.78093825 99.88472042 -58.45586715 93.47429892 -61.5 86.625 C-65.4390085 82.48904108 -69.54054889 81.29513413 -75.125 80.625 C-81.40018824 81.44350281 -85.21027752 84.5869595 -89.140625 89.30859375 Z M-125 161 C-127.93239349 165.03204104 -128.30092325 168.70733555 -128.6875 173.5234375 C-129.03024844 176.23971889 -129.71434112 178.69111891 -130.5 181.3125 C-132.18999351 187.19037987 -132.70419617 192.90992108 -133 199 C-133.09667969 200.07507813 -133.09667969 200.07507813 -133.1953125 201.171875 C-133.38256955 204.09308501 -133.18330577 205.72105644 -131.5625 208.1875 C-125.7179743 212.32143281 -119.88127858 214.84760274 -112.62109375 214.5078125 C-106.67984134 213.35675019 -101.21744155 210.55519755 -97.23046875 205.9609375 C-95.12743152 202.7245632 -93.82210266 199.77496121 -93 196 C-93.66 196 -94.32 196 -95 196 C-94.67475342 195.17330811 -94.34950684 194.34661621 -94.0144043 193.49487305 C-92.88759453 189.61273542 -92.72866383 186.08219891 -92.76953125 182.08203125 C-92.76998947 181.34297043 -92.77044769 180.60390961 -92.7709198 179.842453 C-92.77392501 178.29021587 -92.78175902 176.73798129 -92.79418945 175.18579102 C-92.8125247 172.80929917 -92.81469831 170.43319608 -92.81445312 168.05664062 C-92.81936625 166.54426746 -92.82519368 165.03189694 -92.83203125 163.51953125 C-92.83314407 162.81012894 -92.8342569 162.10072662 -92.83540344 161.36982727 C-92.86494637 158.30843805 -93.02408792 155.92773623 -94 153 C-104.71967971 150.81972616 -116.30588379 154.33321134 -125 161 Z " fill="#4BBE72" transform="translate(289,32)"/>
<path d="M0 0 C0.99 0 1.98 0 3 0 C4.04929687 -0.05800781 5.09859375 -0.11601562 6.1796875 -0.17578125 C16.15780384 -0.54495046 16.15780384 -0.54495046 20.1875 2.0625 C24.60321314 9.21900061 25.64006885 15.5034188 26.5703125 23.76953125 C26.80623191 26.8836133 26.80623191 26.8836133 28 29 C28.28435923 33.92889328 27.570004 37.37721045 26 42 C25.50096578 45.02719931 25.06333072 48.05623333 24.66015625 51.09765625 C23.3418825 56.8933805 19.67690443 60.65994594 15.6875 64.875 C14.69956518 65.93270194 13.71257916 66.99129092 12.7265625 68.05078125 C12.25508789 68.55689941 11.78361328 69.06301758 11.29785156 69.58447266 C9.66450878 71.3659101 8.10764967 73.20435848 6.5625 75.0625 C2.65989462 79.53621837 -0.30256889 81.31666808 -6 83 C-6 83.99 -6 84.98 -6 86 C-7.32 86 -8.64 86 -10 86 C-10.0825 86.680625 -10.165 87.36125 -10.25 88.0625 C-11.20604351 91.80700373 -12.98843357 94.74867662 -15 98 C-15.51949219 98.88558594 -16.03898438 99.77117187 -16.57421875 100.68359375 C-20.41624626 107.04668201 -24.26175328 112.7140806 -31.11328125 116.01953125 C-34.86527121 117.96932314 -35.98161735 121.95185258 -37.42578125 125.734375 C-40.28405902 131.44441372 -45.34021208 133.97953652 -50.6875 137.125 C-52.60857362 138.29344801 -54.52915209 139.46271053 -56.44921875 140.6328125 C-57.38403076 141.19540771 -58.31884277 141.75800293 -59.28198242 142.33764648 C-76.49434851 152.86481802 -101.26264414 168.48068677 -107.6171875 188.9921875 C-108.56437087 193.96006762 -108.45615484 198.55103758 -106.9375 203.375 C-104.4608658 206.73043988 -102.05558109 208.2898788 -98 209 C-85.18903456 208.8549702 -74.69544156 197.38444124 -65.68261719 189.46484375 C-61.54730362 185.86474488 -57.27809674 182.42787562 -53 179 C-52.22398437 178.36578125 -51.44796875 177.7315625 -50.6484375 177.078125 C-49.93945312 176.51609375 -49.23046875 175.9540625 -48.5 175.375 C-47.8915625 174.88773438 -47.283125 174.40046875 -46.65625 173.8984375 C-46.1096875 173.60195313 -45.563125 173.30546875 -45 173 C-44.01 173.33 -43.02 173.66 -42 174 C-41.60665973 185.25390219 -41.60665973 185.25390219 -44 189 C-45.18633208 189.81420433 -46.37398538 190.6264849 -47.5625 191.4375 C-50.38505682 193.66522046 -50.94708746 194.71169452 -51.609375 198.3203125 C-51.74204242 200.76445462 -51.81874295 203.21245227 -51.83203125 205.66015625 C-52.08482211 210.68657924 -53.5201989 213.81150876 -56.9375 217.4375 C-59.61774119 220.42849379 -61.23028851 223.38363305 -63 227 C-65.40259729 230.25103924 -68.14570527 233.14570527 -71 236 C-72.20323794 238.40647588 -72.13742718 240.13085467 -72.25 242.8125 C-72.60514262 246.54149755 -72.89320814 247.84923502 -75.125 251 C-78 253 -78 253 -81.625 253.9375 C-85.2681612 254.66451322 -85.2681612 254.66451322 -86.75 258.0625 C-87.1625 259.031875 -87.575 260.00125 -88 261 C-90.96845714 261.98948571 -92.93820061 262.12890185 -96.03515625 262.1328125 C-97.00904297 262.13410156 -97.98292969 262.13539063 -98.98632812 262.13671875 C-100.00146484 262.13285156 -101.01660156 262.12898438 -102.0625 262.125 C-103.08150391 262.12886719 -104.10050781 262.13273437 -105.15039062 262.13671875 C-106.60928711 262.13478516 -106.60928711 262.13478516 -108.09765625 262.1328125 C-108.98976807 262.13168457 -109.88187988 262.13055664 -110.80102539 262.12939453 C-113 262 -113 262 -115 261 C-117.04055005 260.92934383 -119.08334257 260.91578024 -121.125 260.9375 C-122.22070312 260.94652344 -123.31640625 260.95554687 -124.4453125 260.96484375 C-125.70988281 260.98224609 -125.70988281 260.98224609 -127 261 C-127.33 262.98 -127.66 264.96 -128 267 C-129.60875 267.433125 -129.60875 267.433125 -131.25 267.875 C-134.77205501 268.80099142 -134.77205501 268.80099142 -136.9375 270.01953125 C-139.24323 271.11562638 -141.22890892 271.44718266 -143.75 271.8125 C-149.05074201 272.81513302 -152.69121878 274.83278831 -157 278 C-157.75023437 278.54785156 -158.50046875 279.09570312 -159.2734375 279.66015625 C-161.19760355 281.08809 -163.10514627 282.53350416 -165 284 C-165.12375 283.360625 -165.2475 282.72125 -165.375 282.0625 C-165.58125 281.381875 -165.7875 280.70125 -166 280 C-166.66 279.67 -167.32 279.34 -168 279 C-162.68338661 249.99181113 -154.86674525 222.04248676 -143 195 C-141.68 195 -140.36 195 -139 195 C-138.91105469 194.16855469 -138.82210938 193.33710938 -138.73046875 192.48046875 C-137.85877933 188.32712503 -136.26481373 185.05132683 -134.3125 181.3125 C-133.95019287 180.60407959 -133.58788574 179.89565918 -133.21459961 179.16577148 C-130.76599709 174.40216593 -128.23936519 169.68344386 -125.640625 165 C-124.31372269 162.57366435 -123.01658701 160.13747865 -121.734375 157.6875 C-121.33468506 156.92493896 -120.93499512 156.16237793 -120.52319336 155.37670898 C-119.73215351 153.8646568 -118.94378607 152.3512027 -118.15844727 150.83618164 C-116.66809591 147.99245855 -115.27014789 145.34680313 -113.29296875 142.80859375 C-111.83473003 141.04490121 -111.83473003 141.04490121 -111.59472656 138.67382812 C-110.93333412 135.70027723 -109.89366103 133.92419448 -108.19140625 131.41015625 C-107.61422852 130.55035156 -107.03705078 129.69054687 -106.44238281 128.8046875 C-105.51184082 127.44730469 -105.51184082 127.44730469 -104.5625 126.0625 C-103.92795898 125.12535156 -103.29341797 124.18820312 -102.63964844 123.22265625 C-81.31515779 91.84472963 -81.31515779 91.84472963 -74 85 C-73.67 85.33 -73.34 85.66 -73 86 C-72.319375 85.01 -72.319375 85.01 -71.625 84 C-71.08875 83.34 -70.5525 82.68 -70 82 C-69.34 82 -68.68 82 -68 82 C-67.835 81.319375 -67.67 80.63875 -67.5 79.9375 C-65.59185581 76.20071762 -63.02198622 74.24180454 -59.77734375 71.6484375 C-57.74133393 70.02488392 -57.74133393 70.02488392 -57 67 C-55.35570171 65.31126121 -53.68615782 63.64694485 -52 62 C-51.278125 61.071875 -50.55625 60.14375 -49.8125 59.1875 C-49.214375 58.465625 -48.61625 57.74375 -48 57 C-47.34 57 -46.68 57 -46 57 C-45.896875 55.72125 -45.79375 54.4425 -45.6875 53.125 C-45.51171875 50.9453125 -45.51171875 50.9453125 -45 49 C-42 47 -42 47 -40 47 C-39.175 46.01 -38.35 45.02 -37.5 44 C-36.675 43.01 -35.85 42.02 -35 41 C-34.34 41 -33.68 41 -33 41 C-32.79375 40.319375 -32.5875 39.63875 -32.375 38.9375 C-30.57104973 35.08360625 -28.0989655 31.92212236 -25 29 C-24.34 29 -23.68 29 -23 29 C-22.62875 28.13375 -22.62875 28.13375 -22.25 27.25 C-21 25 -21 25 -19 23.0625 C-16.87578902 21.16334389 -16.87578902 21.16334389 -16.2109375 18.71484375 C-14.67029328 15.26081881 -12.33507191 13.04604124 -9.625 10.5 C-6.83480496 7.83663201 -4.18029014 5.23691557 -1.8359375 2.15625 C-1.23007812 1.4446875 -0.62421875 0.733125 0 0 Z " fill="#4BBF72" transform="translate(633,195)"/>
<path d="M0 0 C0.59683594 0.49757813 1.19367188 0.99515625 1.80859375 1.5078125 C4.83688604 3.56985823 7.00504881 3.26391461 10.625 3.125 C16.83157895 2.91578947 16.83157895 2.91578947 19 4 C14.50972288 20.11217083 8.02179575 35.66830554 2.05761719 51.27612305 C-0.02235992 56.73086659 -2.08709818 62.18495302 -4.015625 67.6953125 C-8.80885666 81.3819943 -15.09256384 93.14135578 -26 103 C-26.99 103 -27.98 103 -29 103 C-30.68704193 104.30745749 -32.35360035 105.64172029 -34 107 C-35.485 107.495 -35.485 107.495 -37 108 C-37 108.66 -37 109.32 -37 110 C-38.68125012 111.19542478 -40.42248083 112.30712843 -42.1875 113.375 C-44.13879485 114.56092753 -46.07646358 115.7695597 -48 117 C-48.90363281 117.56976563 -49.80726563 118.13953125 -50.73828125 118.7265625 C-56.22668577 124.24340435 -55.84103351 134.93073444 -56.69921875 142.296875 C-56.9377191 144.27384148 -57.17624414 146.25080521 -57.41590309 148.22763157 C-57.58307056 149.60743029 -57.7496873 150.98729584 -57.91577721 152.36722469 C-62.89346483 193.72176674 -62.89346483 193.72176674 -66.6875 213.1875 C-66.81957855 213.88637329 -66.9516571 214.58524658 -67.08773804 215.30529785 C-71.58773561 238.81879869 -71.58773561 238.81879869 -80 246 C-83.0625 246.125 -83.0625 246.125 -86 245 C-86.89332031 244.00806641 -86.89332031 244.00806641 -87.8046875 242.99609375 C-90.57235144 240.47958793 -92.38256663 240.33422144 -96.0625 239.9375 C-100.26188245 239.47551602 -102.21136566 239.1823239 -105 236 C-108.10007201 234.79950593 -108.10007201 234.79950593 -111 234 C-110.34 231.03 -109.68 228.06 -109 225 C-108.34 225 -107.68 225 -107 225 C-105.18716601 216.99435895 -105.18716601 216.99435895 -103.64453125 208.93359375 C-102.73997252 204.81648101 -101.5196878 200.82997176 -100.25 196.8125 C-100.01023437 195.99330078 -99.77046875 195.17410156 -99.5234375 194.33007812 C-98.81164704 192.10114664 -98.116025 190.05732314 -97 188 C-94.37109375 186.65234375 -94.37109375 186.65234375 -92 186 C-89.83919898 180.08622878 -89.34599072 173.74292753 -88.50390625 167.5234375 C-88.06151033 164.43009547 -87.53071801 161.37965682 -86.9375 158.3125 C-85.8682776 152.64646318 -85 146.78060072 -85 141 C-90.8206123 140.4326479 -93.81877956 143.18322419 -98.27734375 146.59765625 C-105.29600382 152.79059161 -109.90355698 160.87200898 -112 170 C-111.97292969 171.0003125 -111.94585937 172.000625 -111.91796875 173.03125 C-112.03774298 178.82604131 -113.50579372 184.19875426 -114.875 189.8125 C-115.41544857 192.06867885 -115.95453102 194.32518541 -116.4921875 196.58203125 C-116.74967773 197.66049316 -117.00716797 198.73895508 -117.27246094 199.85009766 C-118.28056265 204.21470446 -119.16366694 208.59959186 -120 213 C-120.66 212.67 -121.32 212.34 -122 212 C-122.99 216.95 -123.98 221.9 -125 227 C-125.66 226.67 -126.32 226.34 -127 226 C-128.58425639 226.0313432 -130.16791772 226.09880751 -131.75 226.1875 C-136.69131568 226.24437845 -139.10882878 225.16723239 -143 222 C-145.72000499 220.29208989 -147.94769178 219.01743607 -151 218 C-152.75 216.5 -152.75 216.5 -154 214 C-154.01595584 207.3056394 -152.03436024 200.85092307 -150.125 194.5 C-149.82762939 193.49767334 -149.53025879 192.49534668 -149.22387695 191.46264648 C-146.58752347 182.70574002 -143.78699587 174.00100699 -140.92840576 165.31445312 C-140.43464234 163.81367917 -139.94298137 162.31221185 -139.45343018 160.81005859 C-138.76211835 158.69483767 -138.06050627 156.58333593 -137.35546875 154.47265625 C-136.94965576 153.24812744 -136.54384277 152.02359863 -136.12573242 150.76196289 C-135 148 -135 148 -133 147 C-131.94633506 144.59330014 -130.98120128 142.20758377 -130.0625 139.75 C-128.68694355 136.09826703 -127.38156216 132.63532838 -125.3671875 129.28125 C-123.9948361 126.99138366 -123.4924504 125.35868782 -123.0625 122.75 C-122.40685149 119.41666096 -121.46878624 116.62472962 -120 113.5625 C-118.53326304 110.47807484 -117.67945235 107.74342975 -117.1484375 104.375 C-116.07028172 98.68420796 -114.01860068 93.69012371 -111.625 88.4375 C-111.23828125 87.53708984 -110.8515625 86.63667969 -110.453125 85.70898438 C-110.06898438 84.85498047 -109.68484375 84.00097656 -109.2890625 83.12109375 C-108.77400146 81.96758423 -108.77400146 81.96758423 -108.24853516 80.79077148 C-106.66601626 78.52096779 -105.62651294 78.56975724 -103 78 C-100.90673098 75.15196521 -100.90673098 75.15196521 -100.0625 72.125 C-99 69 -99 69 -97.5 66.625 C-95.91842929 63.85725126 -95.22994721 61.23669922 -94.51000977 58.14746094 C-92.56942303 49.97637386 -89.17985745 43.49568346 -84.5625 36.5 C-83.98951172 35.59507813 -83.41652344 34.69015625 -82.82617188 33.7578125 C-82.26607422 32.89929688 -81.70597656 32.04078125 -81.12890625 31.15625 C-80.62431885 30.38087891 -80.11973145 29.60550781 -79.59985352 28.80664062 C-77.7756197 26.7466177 -76.68628875 26.35763877 -74 26 C-74 25.34 -74 24.68 -74 24 C-73.34 24 -72.68 24 -72 24 C-71.67 22.68 -71.34 21.36 -71 20 C-70.34 20 -69.68 20 -69 20 C-69 19.01 -69 18.02 -69 17 C-67.33388095 16.957279 -65.66617115 16.95936168 -64 17 C-63.67 17.33 -63.34 17.66 -63 18 C-60.67182036 18.36760731 -58.3381615 18.70241581 -56 19 C-55.690625 18.071875 -55.690625 18.071875 -55.375 17.125 C-53.45794598 14.16228015 -51.29282615 14.02900817 -48 13 C-47.34 12.01 -46.68 11.02 -46 10 C-40.43419738 6.23932256 -36.18147308 4.65609275 -29.4375 5.25 C-27.76494141 5.38148437 -27.76494141 5.38148437 -26.05859375 5.515625 C-23.25797507 5.95914571 -21.41198677 6.56106412 -19 8 C-19 5.69 -19 3.38 -19 1 C-18.07767578 1.01740234 -18.07767578 1.01740234 -17.13671875 1.03515625 C-15.92435547 1.04869141 -15.92435547 1.04869141 -14.6875 1.0625 C-13.88699219 1.07410156 -13.08648437 1.08570312 -12.26171875 1.09765625 C-7.98064851 0.91280866 -4.4516818 -0.31239872 0 0 Z M-55.13671875 43.484375 C-64.93754974 56.78675961 -72.18254307 72.31215299 -78.6875 87.4375 C-79.01435791 88.18725098 -79.34121582 88.93700195 -79.67797852 89.70947266 C-81.66696761 94.50666945 -82.56222304 98.82255781 -83 104 C-81.37246848 104.85266886 -81.37246848 104.85266886 -79 105 C-76.36202852 103.9840245 -73.99435496 102.92107485 -71.5 101.625 C-70.79456055 101.26792969 -70.08912109 100.91085938 -69.36230469 100.54296875 C-63.54466022 97.50126952 -58.50254087 93.86243603 -53.453125 89.6875 C-51 88 -51 88 -47 88 C-46.505 87.01 -46.505 87.01 -46 86 C-44.33720673 84.9935725 -42.67016516 83.99414593 -41 83 C-38.78968412 81.19900188 -38.05568774 80.15221315 -37.0625 77.4375 C-36 75 -36 75 -34.0625 74.0625 C-30.27583237 72.11179243 -29.36384244 68.02330686 -28 64.1875 C-27.505 62.6096875 -27.505 62.6096875 -27 61 C-26.73960937 60.24976563 -26.47921875 59.49953125 -26.2109375 58.7265625 C-25.93507813 57.92992187 -25.65921875 57.13328125 -25.375 56.3125 C-24.98441406 55.19294922 -24.98441406 55.19294922 -24.5859375 54.05078125 C-23.86263944 51.87471214 -23.86263944 51.87471214 -24 49 C-24.66 49 -25.32 49 -26 49 C-25.938125 47.948125 -25.87625 46.89625 -25.8125 45.8125 C-26.01104612 41.77539551 -26.50690063 40.11637422 -29 37 C-38.63619333 31.03272929 -48.47443688 35.73810212 -55.13671875 43.484375 Z " fill="#4BBE72" transform="translate(365,73)"/>
<path d="M0 0 C0 0.66 0 1.32 0 2 C0.556875 2.15855469 1.11375 2.31710938 1.6875 2.48046875 C7.24466878 4.17953556 12.471578 6.26127557 17 10 C17 10.66 17 11.32 17 12 C18.010625 11.87625 19.02125 11.7525 20.0625 11.625 C25.28556339 12.12243461 27.50762518 14.25122297 31 18 C31.61875 18.886875 32.2375 19.77375 32.875 20.6875 C35.97735706 24.06359445 39.65034565 24.85682161 44 26 C43.43840812 29.51339227 42.58826465 32.09424334 40.734375 35.125 C40.26346436 35.90238525 39.79255371 36.67977051 39.30737305 37.48071289 C38.79343994 38.31207764 38.27950684 39.14344238 37.75 40 C36.94526245 41.32342407 36.94526245 41.32342407 36.12426758 42.67358398 C33.39586606 47.14835246 30.62982728 51.59856788 27.83984375 56.03515625 C21.07435339 66.81173618 14.72753033 77.7468888 8.59765625 88.89819336 C3.09137525 98.89894778 -2.67042512 108.72947679 -8.52734375 118.52783203 C-10.38409326 121.64478255 -12.2181266 124.77470628 -14.05053711 127.90600586 C-17.22468902 133.33012733 -20.42900584 138.72644173 -23.75 144.0625 C-32.68908742 158.49840528 -41.05717159 173.29398437 -49.45117188 188.05126953 C-53.91503782 195.88674737 -58.47465771 203.66511182 -63.05273438 211.43432617 C-65.62492455 215.82296363 -68.15329135 220.20771643 -70.453125 224.74609375 C-70.80729492 225.4436377 -71.16146484 226.14118164 -71.52636719 226.85986328 C-72.42106267 228.65418987 -73.28994611 230.46132621 -74.15625 232.26953125 C-76 235 -76 235 -79.015625 236.48828125 C-82.92308477 238.46758352 -83.58788302 240.38409274 -85.25 244.375 C-85.96929687 246.05722656 -85.96929687 246.05722656 -86.703125 247.7734375 C-87.13109375 248.83820313 -87.5590625 249.90296875 -88 251 C-88.37640625 251.91136719 -88.7528125 252.82273437 -89.140625 253.76171875 C-90.06299265 256.16406722 -90.5076868 258.47689487 -91 261 C-91.52207031 262.32064453 -91.52207031 262.32064453 -92.0546875 263.66796875 C-93.15664421 267.55213848 -93.00847373 270.91755116 -92.625 274.875 C-92.56828125 275.56335938 -92.5115625 276.25171875 -92.453125 276.9609375 C-92.31307172 278.64157689 -92.15807755 280.32096005 -92 282 C-89.0979565 283.21268968 -88.04912674 283.01909036 -85.0546875 281.85546875 C-83.48074219 281.02982422 -83.48074219 281.02982422 -81.875 280.1875 C-80.82054687 279.64480469 -79.76609375 279.10210937 -78.6796875 278.54296875 C-75.95589307 277.12918736 -75.95589307 277.12918736 -74 275 C-73.01 275 -72.02 275 -71 275 C-70.56710589 283.44143515 -72.81062888 291.66860055 -77 299 C-77.66 299.33 -78.32 299.66 -79 300 C-80.15536301 302.15908468 -80.15536301 302.15908468 -81.25 304.828125 C-81.68868408 305.84583984 -82.12736816 306.86355469 -82.5793457 307.91210938 C-83.04816162 309.01361328 -83.51697754 310.11511719 -84 311.25 C-87.66838864 319.71616686 -91.37858609 328.15339351 -95.3125 336.5 C-95.69599609 337.32790039 -96.07949219 338.15580078 -96.47460938 339.00878906 C-99.17881543 344.70246476 -102.40124198 349.8325841 -106 355 C-106.72445312 356.08410156 -107.44890625 357.16820312 -108.1953125 358.28515625 C-108.83210938 359.20167969 -109.46890625 360.11820312 -110.125 361.0625 C-110.76695312 362.00222656 -111.40890625 362.94195312 -112.0703125 363.91015625 C-113.02550781 364.94462891 -113.02550781 364.94462891 -114 366 C-115.32 366 -116.64 366 -118 366 C-118.15781167 362.68595492 -118.1423636 360.34799992 -116.875 357.25 C-115.63820999 352.65620854 -116.24942863 348.42209549 -118 344 C-120.0736943 341.9263057 -121.18408042 341.02828918 -124.140625 340.92578125 C-125.18476563 341.11720703 -125.18476563 341.11720703 -126.25 341.3125 C-127.4875 341.539375 -128.725 341.76625 -130 342 C-130 341.01 -130 340.02 -130 339 C-130.66 339 -131.32 339 -132 339 C-132 338.34 -132 337.68 -132 337 C-132.99 336.67 -133.98 336.34 -135 336 C-135.99 331.05 -136.98 326.1 -138 321 C-140.31 320.34 -142.62 319.68 -145 319 C-144.40057385 314.78369745 -142.93936722 311.7313208 -140.83984375 308.04296875 C-140.21142578 306.93115234 -139.58300781 305.81933594 -138.93554688 304.67382812 C-138.26968046 303.51163325 -137.60366294 302.34952494 -136.9375 301.1875 C-136.26694627 300.00621783 -135.59701769 298.82458055 -134.92773438 297.64257812 C-133.29127213 294.75816626 -131.64851754 291.8775335 -130 289 C-129.34 289 -128.68 289 -128 289 C-128 289.99 -128 290.98 -128 292 C-123.94073227 285.47101598 -120.393607 279.26792142 -118 271.9375 C-117 269 -117 269 -115.3125 265.75 C-114.879375 264.8425 -114.44625 263.935 -114 263 C-114.33 262.34 -114.66 261.68 -115 261 C-114.23413086 259.09008789 -114.23413086 259.09008789 -112.96484375 256.72265625 C-112.49240234 255.83054443 -112.01996094 254.93843262 -111.53320312 254.01928711 C-111.00662109 253.04354736 -110.48003906 252.06780762 -109.9375 251.0625 C-108.82093919 248.96129626 -107.70508222 246.85971838 -106.58984375 244.7578125 C-106.00058105 243.65211914 -105.41131836 242.54642578 -104.80419922 241.40722656 C-102.42009074 236.90484255 -100.08786481 232.37657941 -97.75610352 227.84692383 C-91.03041836 214.789202 -84.1215495 201.84577786 -77 189 C-76.10087891 187.37626465 -76.10087891 187.37626465 -75.18359375 185.71972656 C-73.29329179 182.31077852 -71.39784504 178.90475377 -69.5 175.5 C-68.9121875 174.44280762 -68.324375 173.38561523 -67.71875 172.29638672 C-61.53301051 161.244031 -61.53301051 161.244031 -59 158 C-58.01 158 -57.02 158 -56 158 C-55.71125 157.21625 -55.4225 156.4325 -55.125 155.625 C-54 153 -54 153 -52 151 C-51.249676 149.27099253 -50.50149746 147.5409118 -49.77734375 145.80078125 C-48.19922892 142.14494741 -46.49742836 139.45916464 -43.5625 136.75 C-40.70255001 133.68078538 -39.5922575 130.9485334 -38.02734375 127.12109375 C-36.59495058 124.16371926 -34.31408505 122.31408505 -32 120 C-29.12192193 115.15483216 -26 109.80904401 -26 104 C-24.55703994 100.04150528 -22.71681661 96.29774886 -20.87695312 92.51391602 C-16.09784918 82.66437111 -11.48016642 72.72155277 -9 62 C-8.34 62 -7.68 62 -7 62 C-6.59295835 56.55374374 -6.59295835 56.55374374 -8.3125 51.5625 C-11.35738828 48.743159 -14.74537822 48.6566303 -18.765625 48.72265625 C-26.51734928 49.6848458 -33.52049135 54.97108962 -40 59 C-40.40068266 49.64299524 -39.35773011 41.32630753 -37.125 32.25 C-36.85558594 31.07695312 -36.58617187 29.90390625 -36.30859375 28.6953125 C-34.8059426 22.37684768 -34.8059426 22.37684768 -34 20 C-33.01 19.505 -33.01 19.505 -32 19 C-31.5359375 17.576875 -31.5359375 17.576875 -31.0625 16.125 C-30 13 -30 13 -28.5 11.625 C-26.38843409 9.33747027 -26.17299438 6.95146911 -25.625 3.9375 C-24.83065334 1.47502536 -24.09195087 0.53529441 -22 -1 C-14.15386957 -3.32558437 -7.41313025 -3.56289981 0 0 Z " fill="#4BBE72" transform="translate(489,124)"/>
<path d="M0 0 C14.15033152 -1.05875402 14.15033152 -1.05875402 18.29296875 1.3125 C19.86927034 3.12788076 20.94181097 4.84506444 22 7 C22.5775 7.99 23.155 8.98 23.75 10 C25.69201224 14.96926661 25.97787688 20.50516913 26.5703125 25.76953125 C26.80623191 28.8836133 26.80623191 28.8836133 28 31 C28.32629549 36.74725009 27.42627295 41.97520348 26.25 47.5625 C26.01410156 48.7990332 26.01410156 48.7990332 25.7734375 50.06054688 C24.06862829 58.26330194 19.81929449 63.47134542 14.1875 69.4375 C13.6527002 70.005896 13.11790039 70.57429199 12.56689453 71.15991211 C11.51332926 72.27722814 10.4580554 73.39293614 9.40087891 74.50683594 C8.24791137 75.73575707 7.12539043 76.99317157 6.01171875 78.2578125 C1.70806286 83.00313236 -2.94558455 85.03871049 -9 87 C-8.67 86.01 -8.34 85.02 -8 84 C-4.71694623 82.41927041 -1.45463072 81.15154357 2 80 C2.28230469 79.43023437 2.56460938 78.86046875 2.85546875 78.2734375 C4.42823272 75.14938074 6.81917873 73.01496476 9.3125 70.625 C18.19666055 61.88364378 21.4355147 55.87745023 23.53515625 43.453125 C24 41 24 41 25 38 C25.20113565 34.44660345 25.21621497 31.63423059 24.0625 28.25 C23.0588841 25.18011606 22.83989246 22.9412775 22.6875 19.75 C22.24661361 13.78986911 20.28804099 8.97815551 17 4 C14.02760209 2.51380105 11.30380422 2.86822991 8 2.875 C6.741875 2.87242187 5.48375 2.86984375 4.1875 2.8671875 C1.10322182 2.77772642 1.10322182 2.77772642 -1 4 C-0.67 2.68 -0.34 1.36 0 0 Z " fill="#40B160" transform="translate(635,193)"/>
<path d="M0 0 C0.886875 -0.00257813 1.77375 -0.00515625 2.6875 -0.0078125 C5 0.125 5 0.125 7 1.125 C8.81341842 1.20971364 10.62994161 1.23221083 12.4453125 1.22265625 C13.52167969 1.21943359 14.59804688 1.21621094 15.70703125 1.21289062 C17.39892578 1.20032227 17.39892578 1.20032227 19.125 1.1875 C20.26066406 1.18298828 21.39632812 1.17847656 22.56640625 1.17382812 C25.37765638 1.16201615 28.1888023 1.14554507 31 1.125 C30.34 2.115 29.68 3.105 29 4.125 C26.78515625 4.48144531 26.78515625 4.48144531 24.0625 4.453125 C23.08539062 4.44796875 22.10828125 4.4428125 21.1015625 4.4375 C20.07804688 4.416875 19.05453125 4.39625 18 4.375 C16.46472656 4.36726563 16.46472656 4.36726563 14.8984375 4.359375 C7.30854111 4.27927055 7.30854111 4.27927055 5 3.125 C3.29297265 3.05503986 1.58331997 3.04059846 -0.125 3.0625 C-1.49011719 3.07603516 -1.49011719 3.07603516 -2.8828125 3.08984375 C-3.93082031 3.10724609 -3.93082031 3.10724609 -5 3.125 C-5.08507812 4.29482422 -5.08507812 4.29482422 -5.171875 5.48828125 C-6 8.125 -6 8.125 -8.328125 9.41796875 C-9.29234375 9.71316406 -10.2565625 10.00835937 -11.25 10.3125 C-12.20390625 10.61542969 -13.1578125 10.91835938 -14.140625 11.23046875 C-15.08421875 11.52566406 -16.0278125 11.82085937 -17 12.125 C-18.33224609 12.66833984 -18.33224609 12.66833984 -19.69140625 13.22265625 C-22 14.125 -22 14.125 -24.6875 14.375 C-31.01932787 15.8086214 -36.55797155 19.72091382 -41.375 24 C-44 26.125 -44 26.125 -48 26.125 C-48 24.145 -48 22.165 -48 20.125 C-47.34 20.125 -46.68 20.125 -46 20.125 C-45.67 21.115 -45.34 22.105 -45 23.125 C-44.38253906 22.59390625 -43.76507813 22.0628125 -43.12890625 21.515625 C-35.51363643 15.16377133 -28.73248274 11.3360812 -18.9453125 9.6171875 C-16.69569906 9.1631146 -16.69569906 9.1631146 -14 7.125 C-10.8125 7 -10.8125 7 -8 7.125 C-7.814375 5.6709375 -7.814375 5.6709375 -7.625 4.1875 C-7.41875 3.176875 -7.2125 2.16625 -7 1.125 C-4.51245214 -0.11877393 -2.77344699 -0.00806235 0 0 Z " fill="#3FAE62" transform="translate(513,454.875)"/>
<path d="M0 0 C3.43607062 0.36169164 5.95135367 1.47567684 9 3 C11.3243602 3.69730806 13.65673706 4.36912152 16 5 C15.67 5.66 15.34 6.32 15 7 C7.575 6.01 7.575 6.01 0 5 C-0.66 6.98 -1.32 8.96 -2 11 C-3.5859375 13.484375 -3.5859375 13.484375 -5.375 15.75 C-5.96023438 16.50796875 -6.54546875 17.2659375 -7.1484375 18.046875 C-9 20 -9 20 -11.1015625 20.953125 C-13.78249779 22.43150084 -13.97666559 24.16331701 -15 27 C-16.16233665 28.80135883 -17.37236185 30.57272479 -18.625 32.3125 C-19.25664063 33.19550781 -19.88828125 34.07851562 -20.5390625 34.98828125 C-21.02117188 35.65214844 -21.50328125 36.31601563 -22 37 C-22.33 36.34 -22.66 35.68 -23 35 C-22.26245117 33.35864258 -22.26245117 33.35864258 -21.04296875 31.39453125 C-20.59429443 30.66492188 -20.14562012 29.9353125 -19.68334961 29.18359375 C-19.18971924 28.40113281 -18.69608887 27.61867187 -18.1875 26.8125 C-17.69064697 26.01328125 -17.19379395 25.2140625 -16.68188477 24.390625 C-3.81768252 3.81768252 -3.81768252 3.81768252 0 0 Z " fill="#4AB266" transform="translate(545,151)"/>
<path d="M0 0 C0.66 0.33 1.32 0.66 2 1 C-3.46380088 13.76406404 -9.06811834 26.44004418 -15.25 38.875 C-15.72018555 39.82890625 -16.19037109 40.7828125 -16.67480469 41.765625 C-20.04291472 48.45965579 -23.88566331 54.74106373 -28 61 C-28.4522998 61.71406006 -28.90459961 62.42812012 -29.37060547 63.16381836 C-31.1685057 65.88516325 -32.68418182 67.81050909 -35.5 69.5 C-38.32683216 70.06536643 -40.24503926 69.78713164 -43 69 C-43 68.67 -43 68.34 -43 68 C-42.43152344 67.91105469 -41.86304688 67.82210937 -41.27734375 67.73046875 C-37.22698008 66.790568 -34.71517229 65.86751668 -32.01953125 62.59765625 C-30.87249006 60.75175553 -29.76400741 58.88110416 -28.703125 56.984375 C-27 54 -27 54 -24.62109375 50.796875 C-21.38726177 46.34018578 -19.13911648 41.47376646 -16.8125 36.5 C-16.34344238 35.50983887 -15.87438477 34.51967773 -15.39111328 33.49951172 C-11.44752085 25.10897386 -7.72089203 16.62761103 -4.08520508 8.09960938 C-3.49775513 6.72385742 -3.49775513 6.72385742 -2.8984375 5.3203125 C-2.55474121 4.50836426 -2.21104492 3.69641602 -1.85693359 2.85986328 C-1 1 -1 1 0 0 Z " fill="#3EB25F" transform="translate(410,423)"/>
<path d="M0 0 C-2.66184973 2.66184973 -5.34187787 3.10848803 -8.90625 4.12109375 C-11.34415648 4.91769717 -11.34415648 4.91769717 -13 8 C-16.35723727 8.41965466 -19.64974763 8.43998475 -23.03125 8.49609375 C-24.0109375 8.66238281 -24.990625 8.82867187 -26 9 C-27.48146111 10.92193836 -27.48146111 10.92193836 -28 13 C-32.76033058 12.07438017 -32.76033058 12.07438017 -34.8125 11.4375 C-38.21151372 10.75769726 -41.5381043 10.94230174 -45 11 C-45 10.34 -45 9.68 -45 9 C-48.3 8.34 -51.6 7.68 -55 7 C-55 6.34 -55 5.68 -55 5 C-54.41734375 5.12117188 -53.8346875 5.24234375 -53.234375 5.3671875 C-47.33274089 6.57349636 -41.43109809 7.57695492 -35.46875 8.4375 C-33 9 -33 9 -31 11 C-30.2575 10.030625 -29.515 9.06125 -28.75 8.0625 C-27.14250643 6.14256401 -26.23761576 5.10800716 -23.9375 4.0625 C-22 4 -22 4 -20.24609375 4.6484375 C-16.99188754 5.15779151 -15.07601804 3.9479016 -12.125 2.5625 C-7.82059898 0.54240387 -4.76914543 -0.29184323 0 0 Z " fill="#41B35F" transform="translate(273,43)"/>
<path d="M0 0 C0.66 0.33 1.32 0.66 2 1 C0.62437247 7.6292146 -0.96447535 11.82395715 -6.37890625 16.0390625 C-8 17 -8 17 -10 17 C-10 17.66 -10 18.32 -10 19 C-12.49863124 20.41912551 -14.99884281 21.8353384 -17.5 23.25 C-18.19609375 23.64574219 -18.8921875 24.04148438 -19.609375 24.44921875 C-23.13262977 26.43920524 -26.67304694 28.3962601 -30.2578125 30.2734375 C-30.87285645 30.59747559 -31.48790039 30.92151367 -32.12158203 31.25537109 C-35.52334939 32.60387518 -38.38409961 32.37405866 -42 32 C-44 30 -44 30 -44.25 27 C-44 24 -44 24 -42 22 C-42 24.64 -42 27.28 -42 30 C-34.54735704 29.65683526 -29.76170026 27.73209537 -23.4375 23.875 C-22.63892578 23.41351563 -21.84035156 22.95203125 -21.01757812 22.4765625 C-11.75093419 16.97850481 -3.51139943 10.53419829 0 0 Z " fill="#43B363" transform="translate(227,130)"/>
<path d="M0 0 C0.66 0 1.32 0 2 0 C1.34 2.31 0.68 4.62 0 7 C-0.66 7 -1.32 7 -2 7 C-2.226875 7.53625 -2.45375 8.0725 -2.6875 8.625 C-4.86419673 12.56378456 -7.82029144 15.82029144 -11 19 C-11.96494398 20.11933502 -12.92261099 21.2449633 -13.875 22.375 C-16.14720826 25.04237492 -18.52215893 27.52215893 -21 30 C-23.02835972 32.30951849 -25.01928944 34.6495568 -27 37 C-27.495 35.515 -27.495 35.515 -28 34 C-26.97119141 32.2734375 -26.97119141 32.2734375 -25.3515625 30.375 C-24.76238037 29.6735083 -24.17319824 28.9720166 -23.56616211 28.24926758 C-22.92557861 27.50700928 -22.28499512 26.76475098 -21.625 26 C-20.32667724 24.46236258 -19.02850021 22.92460209 -17.73046875 21.38671875 C-17.09157715 20.63696777 -16.45268555 19.8872168 -15.79443359 19.11474609 C-13.47113548 16.37673136 -11.20172979 13.59954007 -8.9375 10.8125 C-8.24398437 9.966875 -7.55046875 9.12125 -6.8359375 8.25 C-5.68608185 6.8408152 -4.54412649 5.42510533 -3.4140625 4 C-2.31822469 2.63178632 -1.16679628 1.30822614 0 0 Z " fill="#48B264" transform="translate(587,245)"/>
<path d="M0 0 C2.64492308 1.32246154 2.97833787 2.64535898 4.1875 5.3125 C4.55230469 6.09238281 4.91710937 6.87226562 5.29296875 7.67578125 C6.08644855 10.28418169 5.98717163 11.48819664 5 14 C4.525625 14.433125 4.05125 14.86625 3.5625 15.3125 C1.23020609 17.83137742 0.84809649 20.72877067 0 24 C-0.33 24.33 -0.66 24.66 -1 25 C-0.62056512 29.09789669 -0.30694043 31.53958935 2 35 C1.72934022 39.01624187 -0.85128197 42.02091971 -3.0625 45.25 C-3.79597656 46.32765625 -4.52945312 47.4053125 -5.28515625 48.515625 C-5.85105469 49.33546875 -6.41695313 50.1553125 -7 51 C-7.75 49.375 -7.75 49.375 -8 47 C-7.360625 46.08734375 -6.72125 45.1746875 -6.0625 44.234375 C-3.59240884 40.36082295 -3.68228875 37.64430427 -4 33.25 C-4.24002701 26.64925721 -3.91299421 20.62794846 0 15 C2.140625 13.7421875 2.140625 13.7421875 4 13 C3.71125 12.39671875 3.4225 11.7934375 3.125 11.171875 C2.75375 10.37265625 2.3825 9.5734375 2 8.75 C1.62875 7.96109375 1.2575 7.1721875 0.875 6.359375 C0 4 0 4 0 0 Z " fill="#42B365" transform="translate(290,42)"/>
<path d="M0 0 C0.66 0 1.32 0 2 0 C0.48570319 4.1256862 -1.53654172 7.84437149 -3.75 11.625 C-4.47468421 12.8797894 -5.19863614 14.13500198 -5.921875 15.390625 C-6.45458008 16.31391602 -6.45458008 16.31391602 -6.99804688 17.25585938 C-14.13774491 29.68422262 -21.07262549 42.51455396 -26 56 C-26.66 56 -27.32 56 -28 56 C-28.33 56.66 -28.66 57.32 -29 58 C-28.44238661 53.12983538 -26.89256874 49.22491005 -24.68359375 44.90625 C-24.34884537 44.23766968 -24.01409698 43.56908936 -23.66920471 42.88024902 C-22.95928554 41.46643348 -22.24549415 40.05455644 -21.52807617 38.64453125 C-20.45695915 36.53826486 -19.39835061 34.42610224 -18.34179688 32.3125 C-6.81446686 9.37549666 -6.81446686 9.37549666 0 0 Z " fill="#44AD64" transform="translate(520,334)"/>
<path d="M0 0 C0.33 0 0.66 0 1 0 C0.25 7.625 0.25 7.625 -2 11 C-4.390625 11.625 -4.390625 11.625 -7.25 12 C-12.5661602 12.84085671 -16.63049213 14.16554229 -20.9375 17.5 C-23 19 -23 19 -26.125 20.125 C-30.8660751 22.00295832 -34.16426612 25.6304268 -37.765625 29.13671875 C-40 31 -40 31 -43 31 C-36.83752407 23.25740204 -30.30457275 17.61844496 -21 14 C-19.9275 13.29875 -18.855 12.5975 -17.75 11.875 C-13.20624253 9.15082504 -8.17949501 9.18732351 -3 9 C-2.01 6.03 -1.02 3.06 0 0 Z " fill="#3FAD62" transform="translate(210,250)"/>
<path d="M0 0 C4.76728067 2.89845023 8.12016136 6.10809348 11.75 10.3125 C16.10681019 15.24299003 20.37410089 19.04035442 26.13671875 22.33984375 C28 24 28 24 29.0390625 26.82421875 C28.98612884 31.12772508 27.48334231 32.66608612 24.6875 35.875 C23.45580078 37.32519531 23.45580078 37.32519531 22.19921875 38.8046875 C20 41 20 41 18 41 C19.2095017 38.14117779 20.48876746 36.46468326 22.625 34.125 C25.13197715 31.21334493 25.13197715 31.21334493 25.875 28 C24.6661825 23.85548287 22.54099114 23.25056495 18.92578125 21.1171875 C14.23434571 17.72231693 10.56071694 13.40689762 6.69873047 9.11743164 C6.11881348 8.47410889 5.53889648 7.83078613 4.94140625 7.16796875 C4.42263916 6.58297607 3.90387207 5.9979834 3.36938477 5.39526367 C2.03038735 3.87973792 2.03038735 3.87973792 0 3 C0 2.01 0 1.02 0 0 Z " fill="#43AC60" transform="translate(596,160)"/>
<path d="M0 0 C2.125 1.6875 2.125 1.6875 4.125 4.6875 C4.45227273 10.03295455 4.45227273 10.03295455 3.125 12.6875 C2.465 12.6875 1.805 12.6875 1.125 12.6875 C1.09921875 12.06101563 1.0734375 11.43453125 1.046875 10.7890625 C0.99015625 9.97179687 0.9334375 9.15453125 0.875 8.3125 C0.82859375 7.50039062 0.7821875 6.68828125 0.734375 5.8515625 C0.33395059 3.5373134 0.33395059 3.5373134 -1.734375 2.4296875 C-6.34825081 0.82998603 -9.36307796 1.06989789 -13.8203125 2.890625 C-18.02577567 4.936526 -21.90099402 6.86759049 -25.4921875 9.890625 C-27.875 11.6875 -27.875 11.6875 -31.875 11.6875 C-31.545 8.0575 -31.215 4.4275 -30.875 0.6875 C-30.215 1.0175 -29.555 1.3475 -28.875 1.6875 C-28.875 3.9975 -28.875 6.3075 -28.875 8.6875 C-28.2459375 8.21699219 -27.616875 7.74648437 -26.96875 7.26171875 C-18.96646633 1.44078048 -10.07500454 -4.5994586 0 0 Z " fill="#3BB25D" transform="translate(478.875,173.3125)"/>
<path d="M0 0 C0.95309144 3.02303018 1.13806606 3.69450144 -0.23046875 6.72265625 C-0.87628906 7.82480469 -1.52210938 8.92695313 -2.1875 10.0625 C-6.42838788 17.57794798 -9.99543195 25.3722459 -13.5 33.25 C-14.04035889 34.45277588 -14.58071777 35.65555176 -15.13745117 36.89477539 C-15.63865479 38.02778076 -16.1398584 39.16078613 -16.65625 40.328125 C-17.10806641 41.3480957 -17.55988281 42.36806641 -18.02539062 43.41894531 C-19.17662801 46.00794132 -19.17662801 46.00794132 -19 49 C-19.66 49 -20.32 49 -21 49 C-21 49.99 -21 50.98 -21 52 C-21.66 52 -22.32 52 -23 52 C-23.33 53.32 -23.66 54.64 -24 56 C-25.14951731 53.19412503 -25.01908686 52.05472749 -24.00292969 49.14111328 C-23.48118164 48.04524902 -22.95943359 46.94938477 -22.421875 45.8203125 C-22.13915741 45.21888428 -21.85643982 44.61745605 -21.56515503 43.99780273 C-20.63829815 42.03449155 -19.69458914 40.07983344 -18.75 38.125 C-18.10907672 36.77755484 -17.4689448 35.42973299 -16.82958984 34.08154297 C-11.38459072 22.64021094 -5.75918927 11.28629713 0 0 Z " fill="#46B265" transform="translate(504,217)"/>
<path d="M0 0 C0.66 0 1.32 0 2 0 C2 0.66 2 1.32 2 2 C2.66 2 3.32 2 4 2 C4 2.99 4 3.98 4 5 C4.721875 4.649375 5.44375 4.29875 6.1875 3.9375 C9.38363569 2.87212144 10.8394149 2.9187472 14 4 C17.06943621 6.38053531 17.63820947 8.61750316 18.3125 12.375 C18.49425781 13.31085938 18.67601562 14.24671875 18.86328125 15.2109375 C19.01861332 18.37971167 18.2644261 20.12801357 17 23 C16.92353835 25.3320802 16.90856701 27.66845878 17 30 C15.35 30 13.7 30 12 30 C12.875 22.25 12.875 22.25 14 20 C14.12199138 18.0027458 14.17547512 16.00094019 14.1875 14 C14.20167969 12.9275 14.21585937 11.855 14.23046875 10.75 C14.28585786 7.85546904 14.28585786 7.85546904 12 6 C9.87672665 6.13067478 9.87672665 6.13067478 7.5625 6.625 C5.1328125 6.9609375 5.1328125 6.9609375 3 7 C0.9375 5.25 0.9375 5.25 0 3 C0 2.01 0 1.02 0 0 Z " fill="#47AE69" transform="translate(355,461)"/>
<path d="M0 0 C0.66 0.33 1.32 0.66 2 1 C-1.3162249 8.46613763 -5.16031564 13.78697007 -12.7734375 17.265625 C-20.38472258 19.77601376 -26.66936341 17.75021381 -33.75 14.58203125 C-36.45960159 12.67684263 -37.0741955 11.12985045 -38 8 C-35.7897045 9.02620862 -33.92682503 10.05716794 -32 11.5625 C-26.70735769 15.36658666 -19.19851155 14.55578186 -13 14 C-6.71024015 11.02064007 -3.37874538 5.91280441 0 0 Z " fill="#45B066" transform="translate(194,228)"/>
<path d="M0 0 C-2.20765862 5.48353916 -6.79508748 7.66366476 -12 10 C-15.15154047 10.74108952 -18.21695206 11.22584612 -21.43359375 11.578125 C-24.23229408 11.85702539 -24.23229408 11.85702539 -27 14 C-30.32240324 13.6758631 -31.60776303 13.39223697 -34 11 C-36.43252661 10.53837573 -36.43252661 10.53837573 -39.125 10.375 C-40.03507813 10.30023438 -40.94515625 10.22546875 -41.8828125 10.1484375 C-42.58148438 10.09945312 -43.28015625 10.05046875 -44 10 C-43.34 9.67 -42.68 9.34 -42 9 C-42 6.69 -42 4.38 -42 2 C-41.34 2 -40.68 2 -40 2 C-40 3.65 -40 5.3 -40 7 C-39.36191406 7.12117188 -38.72382813 7.24234375 -38.06640625 7.3671875 C-37.24011719 7.53476563 -36.41382813 7.70234375 -35.5625 7.875 C-34.73878906 8.03742188 -33.91507813 8.19984375 -33.06640625 8.3671875 C-32.38449219 8.57601562 -31.70257813 8.78484375 -31 9 C-30.67 9.66 -30.34 10.32 -30 11 C-27.24358584 10.50243908 -27.24358584 10.50243908 -25 9 C-23.20991533 8.77848451 -21.41781838 8.57317787 -19.625 8.375 C-13.41032049 7.42347012 -9.25969303 5.06847766 -4.1796875 1.4609375 C-2 0 -2 0 0 0 Z " fill="#36A85C" transform="translate(223,88)"/>
<path d="M0 0 C0.66 0 1.32 0 2 0 C1.01797355 5.84594566 -0.12542196 10.75077053 -3 16 C-3.144375 16.66 -3.28875 17.32 -3.4375 18 C-4.31589431 21.12317976 -6.07104343 23.42805791 -8 26 C-8.66 26 -9.32 26 -10 26 C-10.61875 27.36125 -10.61875 27.36125 -11.25 28.75 C-13.53096799 32.98608341 -15.39002395 35.46334132 -20 37 C-20.33 37.66 -20.66 38.32 -21 39 C-21.99 39 -22.98 39 -24 39 C-24 38.34 -24 37.68 -24 37 C-22.89524769 35.99458509 -21.73826757 35.04636172 -20.5625 34.125 C-10.09717883 25.18123262 -3.25056543 13.29776766 0 0 Z " fill="#46B468" transform="translate(339,122)"/>
<path d="M0 0 C-1.29245347 3.32182248 -2.70167971 6.53382363 -4.27734375 9.73046875 C-4.70853516 10.61669922 -5.13972656 11.50292969 -5.58398438 12.41601562 C-6.47787701 14.24636721 -7.37623349 16.07454631 -8.27929688 17.90039062 C-11.14241596 23.81010737 -13.3198898 29.65091587 -15 36 C-15.66 36 -16.32 36 -17 36 C-16.48822144 31.64988225 -15.69446031 28.02434323 -14 24 C-13.86207031 23.24847656 -13.72414063 22.49695313 -13.58203125 21.72265625 C-12.01235744 14.37995394 -8.6373931 6.91667395 -4 1 C-2 0 -2 0 0 0 Z " fill="#4AB366" transform="translate(412,359)"/>
<path d="M0 0 C0.66 0 1.32 0 2 0 C0.964448 8.07016387 -1.69583071 15.07828246 -6 22 C-9.38186592 24.25457728 -10.05577949 23.97133175 -13.82861328 23.29736328 C-18.3311079 22.6807635 -22.9018334 22.89913717 -27.4375 22.9375 C-28.45521484 22.94201172 -29.47292969 22.94652344 -30.52148438 22.95117188 C-33.01438509 22.96287563 -35.50716074 22.97927152 -38 23 C-38 22.34 -38 21.68 -38 21 C-35.23988661 20.22220955 -32.78272762 19.87187998 -29.91796875 19.8671875 C-29.15033203 19.86589844 -28.38269531 19.86460937 -27.59179688 19.86328125 C-26.40166992 19.86908203 -26.40166992 19.86908203 -25.1875 19.875 C-24.40568359 19.87113281 -23.62386719 19.86726563 -22.81835938 19.86328125 C-18.10863263 19.87115047 -13.64493824 20.21860852 -9 21 C-5.7493326 16.54075113 -3.86948286 12.38068021 -2.25 7.125 C-1.91935547 6.09246094 -1.91935547 6.09246094 -1.58203125 5.0390625 C-1.04631176 3.36202757 -0.52195222 1.68137069 0 0 Z " fill="#43B160" transform="translate(403,183)"/>
<path d="M0 0 C0.33 0 0.66 0 1 0 C0.96417088 7.61368804 -1.31057338 13.83823819 -4.24609375 20.7734375 C-6.5645743 26.26063935 -8.54623421 31.87063312 -10.55126953 37.47827148 C-12.12019868 41.81047824 -13.83795392 45.9175867 -16 50 C-16.66 49.67 -17.32 49.34 -18 49 C-17.70867187 48.2471875 -17.41734375 47.494375 -17.1171875 46.71875 C-11.14116578 31.23371259 -5.42725615 15.68627113 0 0 Z " fill="#40AF60" transform="translate(444,361)"/>
<path d="M0 0 C0.66 0 1.32 0 2 0 C1.21824485 4.84688192 -0.39844278 9.3766367 -2 14 C-2.66 14 -3.32 14 -4 14 C-4.2165625 15.670625 -4.2165625 15.670625 -4.4375 17.375 C-5 21 -5 21 -6 23 C-3.69 23.66 -1.38 24.32 1 25 C1 25.66 1 26.32 1 27 C1.98742187 27.12117188 2.97484375 27.24234375 3.9921875 27.3671875 C5.27351563 27.53476562 6.55484375 27.70234375 7.875 27.875 C9.78925781 28.11863281 9.78925781 28.11863281 11.7421875 28.3671875 C15 29 15 29 17 31 C12.63604761 33.1819762 6.56299153 31.06282445 2 30 C-1.49598081 28.58211171 -4.75465272 26.91937018 -8 25 C-7.43375164 19.05837993 -5.6793942 14.07178852 -3.4375 8.5625 C-3.10814453 7.73556641 -2.77878906 6.90863281 -2.43945312 6.05664062 C-1.63314164 4.03501907 -0.81751877 2.01711551 0 0 Z " fill="#3DB55E" transform="translate(260,284)"/>
<path d="M0 0 C0.66 0 1.32 0 2 0 C1.56655267 3.35921679 0.55262994 6.08992414 -0.875 9.125 C-2.44857211 12.52594617 -3.53738162 15.80102174 -4.4375 19.4375 C-5.65549366 24.18370354 -7.44097501 28.24066183 -9.7265625 32.5625 C-11.67419186 36.29047767 -13.33146775 40.14093657 -15 44 C-15.66 43.67 -16.32 43.34 -17 43 C-15.54745119 39.12472696 -14.09049708 35.25114432 -12.62988281 31.37890625 C-12.13623114 30.06846223 -11.64367254 28.75760578 -11.15234375 27.44628906 C-7.68028276 18.1827165 -3.97348132 9.06094084 0 0 Z " fill="#3FB661" transform="translate(247,177)"/>
<path d="M0 0 C0.99 0.66 1.98 1.32 3 2 C2.88930176 2.61818604 2.77860352 3.23637207 2.66455078 3.87329102 C0.52134823 15.88838336 -1.54483168 27.87997964 -3 40 C-3.66 40 -4.32 40 -5 40 C-4.85982174 37.02046641 -4.71313658 34.04150696 -4.5625 31.0625 C-4.52318359 30.21236328 -4.48386719 29.36222656 -4.44335938 28.48632812 C-4.40146484 27.67744141 -4.35957031 26.86855469 -4.31640625 26.03515625 C-4.27974854 25.2862915 -4.24309082 24.53742676 -4.20532227 23.76586914 C-4 22 -4 22 -3 21 C-2.78574169 19.52697414 -2.62954945 18.04537853 -2.5 16.5625 C-2.4175 15.66789062 -2.335 14.77328125 -2.25 13.8515625 C-2.1675 12.91054688 -2.085 11.96953125 -2 11 C-1.83741118 9.1454713 -1.67095344 7.29127634 -1.5 5.4375 C-1.4278125 4.61121094 -1.355625 3.78492188 -1.28125 2.93359375 C-1 1 -1 1 0 0 Z " fill="#46B063" transform="translate(458,450)"/>
<path d="M0 0 C4.18557667 1.36851551 8.69275259 0.88036628 13.04296875 0.66796875 C13.53796875 2.15296875 13.53796875 2.15296875 14.04296875 3.66796875 C11.62562333 3.74914826 9.21101926 3.80853801 6.79296875 3.85546875 C6.11105469 3.88060547 5.42914063 3.90574219 4.7265625 3.93164062 C0.39492008 3.9947228 -1.71337291 3.49332726 -4.95703125 0.66796875 C-8.48193618 0.40686468 -11.54575067 0.59242742 -15.01953125 1.23046875 C-18.25536302 1.71240114 -20.77518227 1.34979353 -23.95703125 0.66796875 C-23.62703125 2.31796875 -23.29703125 3.96796875 -22.95703125 5.66796875 C-23.94703125 5.33796875 -24.93703125 5.00796875 -25.95703125 4.66796875 C-25.99975225 3.0018497 -25.99766957 1.3341399 -25.95703125 -0.33203125 C-24.95703125 -1.33203125 -24.95703125 -1.33203125 -22.77734375 -1.39453125 C-20.98567428 -1.35298529 -19.19400759 -1.31131933 -17.40234375 -1.26953125 C-3.34192757 -1.62890291 -3.34192757 -1.62890291 0 0 Z " fill="#46B163" transform="translate(369.95703125,73.33203125)"/>
<path d="M0 0 C3.62113142 0.24689532 5.53324973 0.59632409 8.3125 3 C10.2577862 6.45828658 10.4432282 8.9697682 10.74609375 12.85546875 C11.11176446 15.94397986 11.97794308 17.6409336 14 20 C16.27242179 21.5385662 18.54431462 22.74899047 21 24 C20 25 19 26 18 27 C17.195625 27.845625 16.39125 28.69125 15.5625 29.5625 C13.36522406 31.65259175 11.76678097 32.87279294 9 34 C10.55500981 30.18315774 13.03595495 27.80804268 16 25 C15.4225 24.814375 14.845 24.62875 14.25 24.4375 C10.9074423 22.30197702 9.30561819 19.65448153 8 16 C7.39636633 12.00404491 7.13258168 8.03711203 7 4 C6.21625 3.71125 5.4325 3.4225 4.625 3.125 C2 2 2 2 0 0 Z " fill="#3FB45D" transform="translate(214,54)"/>
<path d="M0 0 C0.99 0.33 1.98 0.66 3 1 C2.23816406 1.82242188 1.47632813 2.64484375 0.69140625 3.4921875 C-14.73315456 19.77030164 -14.73315456 19.77030164 -28.6328125 37.3203125 C-29.30957031 38.15175781 -29.30957031 38.15175781 -30 39 C-30.66 39 -31.32 39 -32 39 C-30.34643078 35.41726669 -28.32019297 32.19026533 -26 29 C-25.34 29 -24.68 29 -24 29 C-23.7834375 28.46375 -23.566875 27.9275 -23.34375 27.375 C-21.52006134 24.15173632 -19.04312608 21.65709816 -16.5 19 C-10.7304761 12.87273749 -5.31435916 6.52537463 0 0 Z " fill="#3EB55C" transform="translate(599,216)"/>
<path d="M0 0 C0.66 0.33 1.32 0.66 2 1 C1.32866563 5.53553499 0.65304109 10.07040374 -0.02636719 14.60473633 C-0.25635537 16.14362784 -0.48522118 17.68268757 -0.71289062 19.22192383 C-1.89503451 27.20917233 -3.08816599 35.14718648 -5 43 C-5.66 43 -6.32 43 -7 43 C-6.10574916 35.63395441 -5.09254593 28.28567152 -4.0625 20.9375 C-3.89298828 19.69677734 -3.72347656 18.45605469 -3.54882812 17.17773438 C-2.72172765 11.29997474 -1.8692851 5.64138508 0 0 Z " fill="#3FB35C" transform="translate(442,143)"/>
<path d="M0 0 C0.99 0.33 1.98 0.66 3 1 C1.77910312 5.43962502 -0.0279954 8.91772982 -2.5234375 12.7265625 C-3.5870662 14.36421304 -4.60830813 16.02967278 -5.6015625 17.7109375 C-9.07593494 23.50155823 -12.84003146 29.76299692 -19 33 C-21.7421875 32.671875 -21.7421875 32.671875 -24 32 C-23 30 -23 30 -19.8125 28.8125 C-12.31894702 25.70802805 -8.97087484 18.52526346 -5.39453125 11.6484375 C-4.44123714 9.83797978 -3.42847252 8.05793675 -2.3671875 6.30859375 C-1.09001397 4.15199502 -0.45295633 2.44596417 0 0 Z " fill="#43B062" transform="translate(623,280)"/>
<path d="M0 0 C0.33 0 0.66 0 1 0 C1.25706972 5.91260345 0.2982126 11.23918159 -1 17 C-2.9375 17.5625 -2.9375 17.5625 -5 18 C-5.33 17.67 -5.66 17.34 -6 17 C-7.58423775 17.03227151 -9.16780178 17.10090039 -10.75 17.1875 C-15.57033419 17.24227652 -17.48331092 16.41900327 -21 13 C-22.5778125 12.2265625 -22.5778125 12.2265625 -24.1875 11.4375 C-27 10 -27 10 -29 7 C-24.44150374 7 -21.7838638 9.36197132 -18.3125 12.1875 C-14.28031689 14.39378887 -11.575477 14.29191726 -7.07421875 14.04296875 C-6.04748047 14.02169922 -6.04748047 14.02169922 -5 14 C-4.67 14.33 -4.34 14.66 -4 15 C-3.79503906 14.00097656 -3.59007812 13.00195312 -3.37890625 11.97265625 C-3.10949219 10.68230469 -2.84007812 9.39195312 -2.5625 8.0625 C-2.29566406 6.77472656 -2.02882812 5.48695313 -1.75390625 4.16015625 C-1 1 -1 1 0 0 Z " fill="#42AE5E" transform="translate(243,284)"/>
<path d="M0 0 C0.66 0 1.32 0 2 0 C2 1.32 2 2.64 2 4 C3.01320313 3.91298828 3.01320313 3.91298828 4.046875 3.82421875 C6.77323688 3.68632472 9.29230869 3.63409577 12 4 C13.35827971 5.64639965 14.69254251 7.31295807 16 9 C21.67015877 10.22835161 26.05818548 8.89276948 31 6 C31.66 6 32.32 6 33 6 C33 5.34 33 4.68 33 4 C34.98 4 36.96 4 39 4 C37.58951473 6.82097053 35.92599628 6.85504493 33 8 C31.96875 8.70125 30.9375 9.4025 29.875 10.125 C25.23060493 12.82997735 20.21434455 12.99920612 15 12 C13.62517293 10.36739286 12.29352333 8.69774938 11 7 C7.38015935 5.94685923 3.7402293 5.43206097 0 5 C-0.33 4.01 -0.66 3.02 -1 2 C-0.67 1.34 -0.34 0.68 0 0 Z " fill="#38A95E" transform="translate(95,258)"/>
<path d="M0 0 C-4.36706524 5.65240713 -8.11102905 8.70367635 -15 11 C-15.66 14.3 -16.32 17.6 -17 21 C-18.32 21.33 -19.64 21.66 -21 22 C-20.01 20.515 -20.01 20.515 -19 19 C-18.72696963 17.19358697 -18.50234 15.37954001 -18.3125 13.5625 C-17.47818719 8.45569819 -17.47818719 8.45569819 -15.421875 6.49609375 C-13.66806672 5.5565536 -11.83370219 4.77208513 -10 4 C-8.24850835 2.41754725 -8.24850835 2.41754725 -7 1 C-4.53721199 -0.231394 -2.7204945 -0.07159196 0 0 Z " fill="#44B766" transform="translate(112,186)"/>
<path d="M0 0 C0.66 0.33 1.32 0.66 2 1 C1.401875 1.969375 0.80375 2.93875 0.1875 3.9375 C-1.38535932 6.67625505 -2.5040923 9.29770042 -3.4375 12.3125 C-5.58608561 19.1319239 -8.3245518 26.37556073 -14 31 C-14.27445144 26.41196086 -13.69223418 23.70176393 -11.4453125 19.70703125 C-10.91292969 18.74732422 -10.38054687 17.78761719 -9.83203125 16.79882812 C-9.26871094 15.81333984 -8.70539063 14.82785156 -8.125 13.8125 C-7.56941406 12.81541016 -7.01382812 11.81832031 -6.44140625 10.79101562 C-4.38563753 7.11787707 -2.33558404 3.50337606 0 0 Z " fill="#47B36C" transform="translate(374,386)"/>
<path d="M0 0 C0.99 0.33 1.98 0.66 3 1 C2.45501461 4.92389479 1.37376487 6.89584594 -1 10 C-1.70922507 11.61533949 -2.41409611 13.23275701 -3.09472656 14.86035156 C-4.88262024 19.08610673 -6.7997872 23.25562906 -8.6875 27.4375 C-9.31108398 28.82098633 -9.31108398 28.82098633 -9.94726562 30.23242188 C-10.96427214 32.48853977 -11.98186351 34.74439187 -13 37 C-13.99 37 -14.98 37 -16 37 C-15.55084229 35.98574951 -15.10168457 34.97149902 -14.63891602 33.92651367 C-12.97331658 30.1644254 -11.30950801 26.40154737 -9.64624023 22.63842773 C-8.92602607 21.00963071 -8.20532598 19.38104846 -7.48413086 17.75268555 C-6.44777745 15.41250968 -5.4131722 13.0715678 -4.37890625 10.73046875 C-3.89448814 9.63813179 -3.89448814 9.63813179 -3.40028381 8.52372742 C-2.15632345 5.70431343 -0.97515295 2.92545886 0 0 Z " fill="#47B168" transform="translate(349,193)"/>
<path d="M0 0 C0.66 0.66 1.32 1.32 2 2 C-0.03477186 4.11013378 -2.01108071 6.00816474 -4.375 7.75 C-8.51098522 11.29513019 -11.43361187 15.71754872 -14.50390625 20.19140625 C-17.53544151 24.48937922 -19.86774236 27.17519728 -25 29 C-25.99 29 -26.98 29 -28 29 C-28.66 30.32 -29.32 31.64 -30 33 C-30.33 32.34 -30.66 31.68 -31 31 C-29.21065837 27.86865214 -27.55208631 26.72951576 -24.3125 25.4375 C-19.39861629 23.14554335 -17.26665763 19.50668661 -14.296875 15.10546875 C-10.15056399 9.49948703 -5.03119537 4.80479158 0 0 Z " fill="#40B161" transform="translate(358,525)"/>
<path d="M0 0 C0.66 0 1.32 0 2 0 C2.11761144 3.95807715 2.18771882 7.91569621 2.25 11.875 C2.28351563 12.98359375 2.31703125 14.0921875 2.3515625 15.234375 C2.45100821 23.6872604 1.39521927 31.03891085 -4.25 37.625 C-5.11625 38.305625 -5.11625 38.305625 -6 39 C-6.99 38.67 -7.98 38.34 -9 38 C-8.38511719 37.36384766 -8.38511719 37.36384766 -7.7578125 36.71484375 C-6.94957031 35.83505859 -6.94957031 35.83505859 -6.125 34.9375 C-5.59132813 34.36902344 -5.05765625 33.80054688 -4.5078125 33.21484375 C-0.67107595 27.57901571 -0.75766161 21.47162814 -0.9375 14.9375 C-1.05234708 9.81191717 -1.04344997 5.05547466 0 0 Z " fill="#3CB35F" transform="translate(449,502)"/>
<path d="M0 0 C0.495 3.96 0.495 3.96 1 8 C0.34 8 -0.32 8 -1 8 C-1.495 4.535 -1.495 4.535 -2 1 C-8.43416092 1.50276826 -13.8360464 2.65151378 -19.8125 5.0625 C-20.91754883 5.45598633 -20.91754883 5.45598633 -22.04492188 5.85742188 C-26.32238642 7.5691805 -28.41522937 9.0687673 -30.51171875 13.24609375 C-31.03361624 14.48685518 -31.53921033 15.73527126 -32 17 C-32.66 16.67 -33.32 16.34 -34 16 C-32.78464404 11.5436948 -31.69067815 8.83898319 -28 6 C-18.90848839 1.1102913 -10.26707155 -1.82157721 0 0 Z " fill="#39B059" transform="translate(195,185)"/>
<path d="M0 0 C-3 2 -3 2 -4.98046875 2.97265625 C-13.9774946 7.41543539 -20.43265041 14.60770278 -24 24 C-25.09678169 27.30933697 -26.08974241 30.63480527 -27 34 C-27.66 33.67 -28.32 33.34 -29 33 C-26.73257802 20.21998523 -21.06767904 10.14658257 -10.4375 2.5 C-6.85036187 0.22732687 -4.32503769 -0.66539041 0 0 Z " fill="#40B760" transform="translate(281,213)"/>
<path d="M0 0 C1.32 0 2.64 0 4 0 C4 0.66 4 1.32 4 2 C3.29875 2.350625 2.5975 2.70125 1.875 3.0625 C-1.74807901 5.5041402 -3.40882064 8.3552801 -5.66796875 12.0390625 C-7 14 -7 14 -9 15 C-9.72980374 16.95720094 -10.45542719 18.91618944 -11.1484375 20.88671875 C-12.34930494 23.86685309 -14.22124558 26.33186838 -16 29 C-17.13102999 31.63587499 -18.06383867 34.28513213 -19 37 C-20.05702173 33.82893481 -19.97492531 33.07370251 -19.125 30 C-18.85042969 28.9790625 -18.85042969 28.9790625 -18.5703125 27.9375 C-16.8104882 21.95891881 -13.262775 17.58386171 -9.625 12.625 C-9.14289063 11.965 -8.66078125 11.305 -8.1640625 10.625 C-7.21927541 9.33618718 -6.26921981 8.05121698 -5.31347656 6.77050781 C-4.15207702 5.20499305 -3.02271755 3.61581928 -1.8984375 2.0234375 C-0.95871094 1.02183594 -0.95871094 1.02183594 0 0 Z " fill="#54B775" transform="translate(414,47)"/>
<path d="M0 0 C-0.33 0.66 -0.66 1.32 -1 2 C-4.28906864 2.5708301 -7.57868872 2.89622698 -10.8984375 3.2421875 C-14.03923337 3.73025462 -14.03923337 3.73025462 -15.8515625 5.8125 C-17.30772732 8.58614727 -17.82135835 11.13874922 -18.375 14.1953125 C-19 16 -19 16 -22 18 C-23.21284876 21.05429073 -23.21284876 21.05429073 -24 24 C-24.66 23.67 -25.32 23.34 -26 23 C-25.74337755 21.55989519 -25.46909179 20.1229313 -25.1875 18.6875 C-25.03667969 17.88699219 -24.88585937 17.08648437 -24.73046875 16.26171875 C-23.91060127 13.72319859 -22.93601224 12.77634112 -21 11 C-20.2884375 9.5459375 -20.2884375 9.5459375 -19.5625 8.0625 C-17.94658072 4.89529821 -16.86734207 3.09238475 -14 1 C-9.27744056 0.08595624 -4.81326137 -0.12033153 0 0 Z " fill="#43B460" transform="translate(481,120)"/>
<path d="M0 0 C3.25511789 0.56122722 4.99840071 1.33120095 7 4 C7.36442233 5.66014616 7.69972883 7.32706064 8 9 C8.66 9.66 9.32 10.32 10 11 C10.12796407 18.33660652 9.51148675 27.04402827 7 34 C6.01 34.66 5.02 35.32 4 36 C4.2165625 34.77023438 4.433125 33.54046875 4.65625 32.2734375 C4.93776162 30.64067009 5.21899704 29.00785503 5.5 27.375 C5.64308594 26.56675781 5.78617188 25.75851563 5.93359375 24.92578125 C6.67456494 20.58580713 7.32992786 16.41965867 7 12 C6.0206121 10.97980427 5.02104551 9.97850195 4 9 C4.020625 8.195625 4.04125 7.39125 4.0625 6.5625 C4.26703574 3.81371205 4.26703574 3.81371205 2 1.6875 C1.34 1.130625 0.68 0.57375 0 0 Z " fill="#40B361" transform="translate(137,121)"/>
<path d="M0 0 C0.66 0 1.32 0 2 0 C0.53651728 6.85176 -0.8547742 12.25017067 -5 18 C-5.495 19.794375 -5.495 19.794375 -6 21.625 C-7.06282785 25.212044 -8.16836742 26.64030619 -11 29 C-12.11627999 26.2281463 -12.04046631 25.11258972 -11.01196289 22.25097656 C-10.5039917 21.22456055 -9.99602051 20.19814453 -9.47265625 19.140625 C-8.92802734 18.02558594 -8.38339844 16.91054687 -7.82226562 15.76171875 C-7.24154297 14.60285156 -6.66082031 13.44398438 -6.0625 12.25 C-5.48564453 11.07566406 -4.90878906 9.90132812 -4.31445312 8.69140625 C-2.88679034 5.78888522 -1.4483376 2.89224507 0 0 Z " fill="#50B36B" transform="translate(271,125)"/>
<path d="M0 0 C1.1816964 3.92358509 0.60047636 5.50249967 -1.25 9.1875 C-3.33739446 13.47729687 -4.9199265 17.61185763 -6.12890625 22.22265625 C-7.28359248 24.57863039 -8.68045351 24.89981985 -11 26 C-11.71706982 27.98248715 -12.38290413 29.98415349 -13 32 C-14.625 33.875 -14.625 33.875 -16 35 C-15.41258868 31.32817041 -14.40096948 28.5005024 -12.63671875 25.234375 C-12.16169922 24.34363281 -11.68667969 23.45289063 -11.19726562 22.53515625 C-10.69904297 21.61605469 -10.20082031 20.69695312 -9.6875 19.75 C-6.1945327 13.26372165 -2.87899045 6.78462995 0 0 Z " fill="#3FB661" transform="translate(411,446)"/>
<path d="M0 0 C0.33 0 0.66 0 1 0 C1.56465362 3.83964463 1.05627386 4.92395424 -1.3125 8.125 C-2.72101985 9.63178868 -4.13820596 11.13289035 -5.625 12.5625 C-8.17770956 15.23124181 -9.8141053 17.91118819 -10.4375 21.5625 C-11.16105552 24.69790727 -12.65327458 25.87328009 -15 28 C-15.33 28.66 -15.66 29.32 -16 30 C-16.99 29.67 -17.98 29.34 -19 29 C-15.24978466 22.55975678 -11.28653524 16.26327018 -7.25 10 C-6.76619873 9.245979 -6.28239746 8.49195801 -5.78393555 7.71508789 C-5.32414307 7.00473389 -4.86435059 6.29437988 -4.390625 5.5625 C-3.7723584 4.60537109 -3.7723584 4.60537109 -3.14160156 3.62890625 C-2 2 -2 2 0 0 Z " fill="#47B466" transform="translate(449,252)"/>
<path d="M0 0 C0.66 0.66 1.32 1.32 2 2 C1.62230469 2.51304687 1.24460937 3.02609375 0.85546875 3.5546875 C-4.33694979 10.77786458 -8.94308466 18.31880445 -13.546875 25.92578125 C-13.97419922 26.63041504 -14.40152344 27.33504883 -14.84179688 28.06103516 C-15.82385482 29.70511277 -16.76781549 31.37185382 -17.703125 33.04296875 C-18.13109375 33.68878906 -18.5590625 34.33460938 -19 35 C-19.66 35 -20.32 35 -21 35 C-18.31880515 27.98764425 -14.71860936 21.81908404 -10.625 15.5625 C-10.15578125 14.83740234 -9.6865625 14.11230469 -9.203125 13.36523438 C-6.24841299 8.82297683 -3.17953846 4.38776307 0 0 Z " fill="#3CB75D" transform="translate(524,309)"/>
<path d="M0 0 C1.5314027 2.4025267 2.0743728 3.54260725 1.609375 6.40234375 C1.32578125 7.23894531 1.0421875 8.07554687 0.75 8.9375 C0.45996094 9.81019531 0.16992188 10.68289063 -0.12890625 11.58203125 C-1.02918442 14.08100967 -1.94364464 16.56225686 -3 19 C-3.66 19 -4.32 19 -5 19 C-4.34 15.37 -3.68 11.74 -3 8 C-3.721875 8.45375 -4.44375 8.9075 -5.1875 9.375 C-7.74894081 10.85494358 -10.23277989 11.97217539 -13 13 C-12.2575 12.278125 -11.515 11.55625 -10.75 10.8125 C-8.01605421 8.11767823 -8.01605421 8.11767823 -5.9375 5.375 C-4.11393401 3.13966105 -2.37504647 1.61163867 0 0 Z " fill="#48B76A" transform="translate(421,391)"/>
<path d="M0 0 C0.33 0.66 0.66 1.32 1 2 C0.01 3.485 0.01 3.485 -1 5 C-1.6496875 6.5778125 -1.6496875 6.5778125 -2.3125 8.1875 C-4.06540366 12.36065642 -6.16453564 16.45566955 -9 20 C-9.99 20.33 -10.98 20.66 -12 21 C-13.21869929 23.50447516 -13.21869929 23.50447516 -14 26 C-14.66 26 -15.32 26 -16 26 C-14.28141428 21.14354711 -11.72786568 16.85781854 -9.125 12.4375 C-8.69058594 11.68275391 -8.25617188 10.92800781 -7.80859375 10.15039062 C-5.54430491 6.29158006 -3.40286295 2.98344031 0 0 Z " fill="#4DB16D" transform="translate(465,226)"/>
<path d="M0 0 C4.38986156 0.58531487 7.47361361 2.23044759 11.25 4.5 C12.83554687 5.44359375 12.83554687 5.44359375 14.453125 6.40625 C17 8 17 8 18 9 C19.051875 9.0825 20.10375 9.165 21.1875 9.25 C25.99684079 10.19609983 27.57316841 11.57316841 31 15 C31.33 15.99 31.66 16.98 32 18 C31.34 18.33 30.68 18.66 30 19 C30 18.34 30 17.68 30 17 C29.38125 16.71125 28.7625 16.4225 28.125 16.125 C26 15 26 15 24 13 C21.67724823 12.59952556 19.34260643 12.2602896 17 12 C17 11.34 17 10.68 17 10 C16.30519531 9.73445312 15.61039062 9.46890625 14.89453125 9.1953125 C11.74323924 7.89396924 8.72999829 6.41296617 5.6875 4.875 C4.61886719 4.33617187 3.55023438 3.79734375 2.44921875 3.2421875 C1.23685547 2.62730469 1.23685547 2.62730469 0 2 C0 1.34 0 0.68 0 0 Z " fill="#3AB45A" transform="translate(489,124)"/>
<path d="M0 0 C-0.33 2.97 -0.66 5.94 -1 9 C-3 8 -3 8 -4 5 C-4.61875 5.639375 -5.2375 6.27875 -5.875 6.9375 C-8.52307305 9.56293994 -11.21388066 12.14052565 -13.9375 14.6875 C-15.15759766 15.83798828 -15.15759766 15.83798828 -16.40234375 17.01171875 C-19.1985866 19.15200087 -21.62195705 20.08050359 -25 21 C-25 20.34 -25 19.68 -25 19 C-24.00484375 18.49984375 -23.0096875 17.9996875 -21.984375 17.484375 C-17.31692028 14.81927245 -13.91169491 11.13183689 -10.25 7.25 C-8.94980391 5.87347146 -7.64281584 4.50331672 -6.328125 3.140625 C-5.7599707 2.53766602 -5.19181641 1.93470703 -4.60644531 1.31347656 C-3 0 -3 0 0 0 Z " fill="#3DAF5E" transform="translate(425,387)"/>
<path d="M0 0 C0 0.99 0 1.98 0 3 C-1.134375 3.45375 -2.26875 3.9075 -3.4375 4.375 C-7.04721692 5.57095806 -7.04721692 5.57095806 -8 8 C-12.82360189 8.19294408 -16.49646738 7.75747614 -21 6 C-21 6.99 -21 7.98 -21 9 C-21.66 9 -22.32 9 -23 9 C-23.33 10.32 -23.66 11.64 -24 13 C-24.66 13 -25.32 13 -26 13 C-26 13.66 -26 14.32 -26 15 C-26.99 14.67 -27.98 14.34 -29 14 C-26.71525038 10.17640432 -24.42887938 6.8729853 -21 4 C-16.78234079 3.41878599 -13.11594396 3.99845364 -9 5 C-8.34 4.01 -7.68 3.02 -7 2 C-3.375 0.8125 -3.375 0.8125 0 0 Z " fill="#3FAF62" transform="translate(317,84)"/>
<path d="M0 0 C4.52061442 -0.11668418 9.04083847 -0.18741645 13.5625 -0.25 C14.83931641 -0.28351563 16.11613281 -0.31703125 17.43164062 -0.3515625 C24.49876409 -0.42498716 29.29365757 -0.35913076 35 4 C34.67 4.66 34.34 5.32 34 6 C32.68322266 5.26330078 32.68322266 5.26330078 31.33984375 4.51171875 C25.66623733 2.08017314 19.61834836 2.68365216 13.5625 2.8125 C12.35400391 2.82603516 11.14550781 2.83957031 9.90039062 2.85351562 C6.93312918 2.88870054 3.96680063 2.93793304 1 3 C0.67 2.01 0.34 1.02 0 0 Z " fill="#36B159" transform="translate(561,156)"/>
<path d="M0 0 C-0.33 0.99 -0.66 1.98 -1 3 C-3.30252483 4.06902939 -5.6372026 5.07175817 -8 6 C-9.58272601 7.58272601 -9.34735747 9.38034003 -9.5625 11.5625 C-9.64628906 12.38878906 -9.73007813 13.21507813 -9.81640625 14.06640625 C-9.87699219 14.70449219 -9.93757812 15.34257813 -10 16 C-10.99 15.67 -11.98 15.34 -13 15 C-13.28328215 11.29215146 -13.44255373 7.698875 -13 4 C-10.75 1.875 -10.75 1.875 -8 1 C-7.319375 0.773125 -6.63875 0.54625 -5.9375 0.3125 C-4 0 -4 0 0 0 Z " fill="#48B368" transform="translate(147,104)"/>
<path d="M0 0 C3.25696479 0.41755959 4.63443291 0.63443291 7 3 C6.625 5.125 6.625 5.125 6 7 C5.34 5.35 4.68 3.7 4 2 C0.05630975 3.29275886 -1.86344665 4.58141646 -4.26171875 7.95703125 C-4.82310547 8.74013672 -5.38449219 9.52324219 -5.96289062 10.33007812 C-6.81657227 11.55887695 -6.81657227 11.55887695 -7.6875 12.8125 C-8.26822266 13.62009766 -8.84894531 14.42769531 -9.44726562 15.25976562 C-12.16225514 19.09213811 -14.3676647 22.57090108 -16 27 C-17.17953728 24.21200279 -17.04494754 23.11633482 -15.9375 20.25 C-11.55257594 12.89464351 -6.0578618 6.0578618 0 0 Z " fill="#42AF66" transform="translate(414,45)"/>
<path d="M0 0 C12.26699029 5.69329214 12.26699029 5.69329214 17 11 C17.886875 11.495 18.77375 11.99 19.6875 12.5 C22.53927796 14.34980192 22.87609378 15.86911838 24 19 C24.99 19.66 25.98 20.32 27 21 C26.67 21.66 26.34 22.32 26 23 C24.1875 22.375 24.1875 22.375 22 21 C21.54625 20.030625 21.0925 19.06125 20.625 18.0625 C18.61800248 14.28008159 16.81146767 13.74692268 13 12 C10 8.7 10 8.7 10 6 C8.948125 5.8453125 8.948125 5.8453125 7.875 5.6875 C4.60862353 4.90640997 1.9528148 3.57941257 -1 2 C-0.67 1.34 -0.34 0.68 0 0 Z " fill="#3BB55C" transform="translate(359,574)"/>
<path d="M0 0 C0.66 0 1.32 0 2 0 C0.32598022 3.95677402 -2.13149285 6.84464213 -5 10 C-5.66 10 -6.32 10 -7 10 C-7.226875 10.53625 -7.45375 11.0725 -7.6875 11.625 C-10.54724656 16.79977949 -14.79788138 20.90293435 -19 25 C-19.928125 25.928125 -20.85625 26.85625 -21.8125 27.8125 C-22.534375 28.534375 -23.25625 29.25625 -24 30 C-23.5279103 25.68961582 -20.7439581 23.22868416 -17.875 20.25 C-16.86913136 19.18030803 -15.86392308 18.10999471 -14.859375 17.0390625 C-14.36888672 16.51989258 -13.87839844 16.00072266 -13.37304688 15.46582031 C-9.4668982 11.29574267 -5.76215238 6.95536383 -2.1875 2.5 C-1.1046875 1.2625 -1.1046875 1.2625 0 0 Z " fill="#42B261" transform="translate(615,214)"/>
<path d="M0 0 C0.33 0 0.66 0 1 0 C1.76756836 3.40946702 2.12818327 6.56226092 2.1328125 10.0546875 C2.13410156 10.99957031 2.13539063 11.94445312 2.13671875 12.91796875 C2.13285156 13.89378906 2.12898437 14.86960938 2.125 15.875 C2.12886719 16.84308594 2.13273438 17.81117188 2.13671875 18.80859375 C2.12968162 23.9808817 1.89431458 28.90382644 1 34 C0.34 33.67 -0.32 33.34 -1 33 C-1.02465392 28.46102295 -1.04283789 23.92208457 -1.05493164 19.38305664 C-1.0599714 17.83780234 -1.0668032 16.29255284 -1.07543945 14.74731445 C-1.08752076 12.53074971 -1.09323173 10.31424782 -1.09765625 8.09765625 C-1.10281754 7.4028566 -1.10797882 6.70805695 -1.11329651 5.99220276 C-1.11349277 4.3277067 -1.06189129 2.66334501 -1 1 C-0.67 0.67 -0.34 0.34 0 0 Z " fill="#3FB35D" transform="translate(218,195)"/>
<path d="M0 0 C2.99987171 3.28557377 4.02529928 6.79791054 5.25390625 10.9765625 C5.90892716 13.18813683 5.90892716 13.18813683 8 15 C9.175625 15.309375 10.35125 15.61875 11.5625 15.9375 C13.2640625 16.4634375 13.2640625 16.4634375 15 17 C16.1577506 20.47325181 16.06866652 23.36067448 16 27 C15.34 27.33 14.68 27.66 14 28 C13.67 25.03 13.34 22.06 13 19 C11.9275 18.7525 10.855 18.505 9.75 18.25 C5.82071021 16.94023674 4.3286155 16.36355572 2 13 C0.58931024 8.6228312 0 4.59965186 0 0 Z " fill="#41AF65" transform="translate(425,66)"/>
<path d="M0 0 C0.66 0 1.32 0 2 0 C2.32512629 7.66485235 1.09741566 14.58055043 -0.5 22.0625 C-0.85771484 23.79016602 -0.85771484 23.79016602 -1.22265625 25.55273438 C-1.80720148 28.37024239 -2.39980583 31.18579171 -3 34 C-5.55923882 30.20669456 -4.88040769 27.4232432 -4.1015625 23.046875 C-3.98775238 22.38665344 -3.87394226 21.72643188 -3.75668335 21.04620361 C-3.3916167 18.94511894 -3.00859812 16.84777216 -2.625 14.75 C-2.37380802 13.32312599 -2.12379437 11.89604401 -1.875 10.46875 C-1.263637 6.97665286 -0.63613754 3.48767943 0 0 Z " fill="#3DB35F" transform="translate(409,146)"/>
<path d="M0 0 C0.66 0 1.32 0 2 0 C1.25405281 7.40450742 0.13670535 14.71895628 -1.0625 22.0625 C-1.3419043 23.79016602 -1.3419043 23.79016602 -1.62695312 25.55273438 C-2.08266741 28.36881495 -2.54039376 31.18455247 -3 34 C-3.66 34 -4.32 34 -5 34 C-5.10391426 29.30567345 -4.78835235 25.01914101 -3.90625 20.41015625 C-3.68066406 19.21455078 -3.45507812 18.01894531 -3.22265625 16.78710938 C-2.98417969 15.55798828 -2.74570312 14.32886719 -2.5 13.0625 C-2.26152344 11.80630859 -2.02304687 10.55011719 -1.77734375 9.25585938 C-1.19057229 6.16944149 -0.59796024 3.08426622 0 0 Z " fill="#41AE63" transform="translate(319,310)"/>
<path d="M0 0 C3.34148439 1.17403506 5.81103718 2.15434834 8 5 C10.44430794 13.01189824 8.70248817 20.29469148 6 28 C5.67 28 5.34 28 5 28 C5.08378906 26.99839844 5.16757812 25.99679687 5.25390625 24.96484375 C5.35716912 23.62242641 5.46001121 22.27997666 5.5625 20.9375 C5.66691406 19.62652344 5.77132813 18.31554687 5.87890625 16.96484375 C5.99674317 13.10663489 5.85698692 9.7632904 5 6 C2.07956297 3.52351923 2.07956297 3.52351923 -1 2 C-0.67 1.34 -0.34 0.68 0 0 Z " fill="#39AE62" transform="translate(371,251)"/>
<path d="M0 0 C0.33 0.99 0.66 1.98 1 3 C-7.47235577 9.64199413 -16.08640197 15.96034438 -25 22 C-25 21.01 -25 20.02 -25 19 C-22.76953125 17.02734375 -22.76953125 17.02734375 -19.8125 14.9375 C-18.84957031 14.24527344 -17.88664062 13.55304688 -16.89453125 12.83984375 C-14.29618645 11.18826426 -11.89342772 10.02089863 -9 9 C-9.33 8.01 -9.66 7.02 -10 6 C-9.278125 5.7525 -8.55625 5.505 -7.8125 5.25 C-4.75286734 3.89016326 -2.5326262 2.17082246 0 0 Z " fill="#3EAF62" transform="translate(337,174)"/>
<path d="M0 0 C4.96048659 3.92159223 8.47753874 7.75790883 10 14 C10.66 14.33 11.32 14.66 12 15 C11.01 15 10.02 15 9 15 C7.28125 13.171875 7.28125 13.171875 5.5 10.75 C4.9121875 9.96109375 4.324375 9.1721875 3.71875 8.359375 C2.86796875 7.19148437 2.86796875 7.19148437 2 6 C1.00145303 4.66557813 0.00195396 3.33186563 -1 2 C-1.556875 2.144375 -2.11375 2.28875 -2.6875 2.4375 C-3.8321875 2.7159375 -3.8321875 2.7159375 -5 3 C-6.2375 3.3403125 -6.2375 3.3403125 -7.5 3.6875 C-10.39107497 4.04888437 -11.5735637 3.52775619 -14 2 C-13.46375 1.87625 -12.9275 1.7525 -12.375 1.625 C-9.86683092 1.00781887 -9.86683092 1.00781887 -7 -0.125 C-3.83538927 -1.04801146 -2.98273123 -1.13118675 0 0 Z " fill="#3AB75A" transform="translate(341,559)"/>
<path d="M0 0 C0.66 0 1.32 0 2 0 C-0.16752744 17.92672692 -0.16752744 17.92672692 -3 23 C-3.99 23.33 -4.98 23.66 -6 24 C-7 22 -7 22 -6.07421875 18.76953125 C-5.61945775 17.44792377 -5.15685871 16.12899395 -4.6875 14.8125 C-4.2315622 13.50703706 -3.77712724 12.20104825 -3.32421875 10.89453125 C-3.10169434 10.25338379 -2.87916992 9.61223633 -2.64990234 8.95166016 C-1.66506215 5.99417988 -0.82998648 3.00431725 0 0 Z " fill="#45B465" transform="translate(276,237)"/>
</svg>
