<svg width="29" height="21" viewBox="0 0 29 21" fill="none" xmlns="http://www.w3.org/2000/svg">
<path d="M24.8807 20.6644H4.11932C3.0272 20.6632 1.98018 20.2287 1.20794 19.4565C0.435693 18.6843 0.00128258 17.6372 0 16.5451V4.11932C0.00128258 3.0272 0.435693 1.98018 1.20794 1.20794C1.98018 0.435693 3.0272 0.00128258 4.11932 0H24.8807C25.9728 0.00128258 27.0198 0.435693 27.7921 1.20794C28.5643 1.98018 28.9987 3.0272 29 4.11932V16.5451C28.9987 17.6372 28.5643 18.6843 27.7921 19.4565C27.0198 20.2287 25.9728 20.6632 24.8807 20.6644ZM4.11932 1.45388C3.4124 1.45388 2.73443 1.7347 2.23457 2.23457C1.7347 2.73443 1.45388 3.4124 1.45388 4.11932V16.5451C1.45388 17.252 1.7347 17.93 2.23457 18.4299C2.73443 18.9297 3.4124 19.2106 4.11932 19.2106H24.8807C25.5876 19.2106 26.2656 18.9297 26.7654 18.4299C27.2653 17.93 27.5461 17.252 27.5461 16.5451V4.11932C27.5461 3.4124 27.2653 2.73443 26.7654 2.23457C26.2656 1.7347 25.5876 1.45388 24.8807 1.45388H4.11932Z" fill="black"/>
<path d="M14.4992 13.2789C13.6024 13.2803 12.7296 12.9893 12.013 12.4502L0.697031 3.89166C0.617078 3.83555 0.549255 3.7639 0.49761 3.68099C0.445966 3.59808 0.41156 3.50561 0.396448 3.40911C0.381336 3.3126 0.385827 3.21405 0.409654 3.11932C0.433481 3.02459 0.476155 2.93563 0.535126 2.85777C0.594098 2.7799 0.668157 2.71471 0.752882 2.6661C0.837608 2.6175 0.93126 2.58646 1.02825 2.57485C1.12523 2.56325 1.22356 2.5713 1.31737 2.59854C1.41117 2.62579 1.49852 2.67165 1.5742 2.7334L12.8902 11.3016C13.3549 11.6485 13.9193 11.8359 14.4992 11.8359C15.0791 11.8359 15.6434 11.6485 16.1081 11.3016L27.4241 2.7334C27.4998 2.67165 27.5872 2.62579 27.681 2.59854C27.7748 2.5713 27.8731 2.56325 27.9701 2.57485C28.0671 2.58646 28.1607 2.6175 28.2455 2.6661C28.3302 2.71471 28.4042 2.7799 28.4632 2.85777C28.5222 2.93563 28.5649 3.02459 28.5887 3.11932C28.6125 3.21405 28.617 3.3126 28.6019 3.40911C28.5868 3.50561 28.5524 3.59808 28.5007 3.68099C28.4491 3.7639 28.3813 3.83555 28.3013 3.89166L16.9853 12.4502C16.2687 12.9893 15.3959 13.2803 14.4992 13.2789Z" fill="black"/>
<path d="M1.01267 18.6389C0.865239 18.6391 0.721222 18.5945 0.599734 18.5109C0.478245 18.4274 0.38503 18.3089 0.332456 18.1711C0.279882 18.0334 0.270435 17.8829 0.305368 17.7397C0.340301 17.5964 0.417963 17.4672 0.528049 17.3691L9.44516 9.41644C9.58912 9.28791 9.77823 9.22183 9.97091 9.23273C10.1636 9.24364 10.344 9.33064 10.4726 9.47459C10.6011 9.61855 10.6672 9.80766 10.6563 10.0003C10.6454 10.193 10.5584 10.3735 10.4144 10.502L1.4973 18.4547C1.36488 18.5752 1.1917 18.641 1.01267 18.6389ZM27.9869 18.6389C27.8079 18.641 27.6347 18.5752 27.5023 18.4547L18.5852 10.502C18.4412 10.3735 18.3542 10.193 18.3433 10.0003C18.3324 9.80766 18.3985 9.61855 18.527 9.47459C18.6556 9.33064 18.836 9.24364 19.0287 9.23273C19.2214 9.22183 19.4105 9.28791 19.5544 9.41644L28.4667 17.3691C28.5768 17.4672 28.6545 17.5964 28.6894 17.7397C28.7243 17.8829 28.7149 18.0334 28.6623 18.1711C28.6097 18.3089 28.5165 18.4274 28.395 18.5109C28.2735 18.5945 28.1295 18.6391 27.9821 18.6389H27.9869Z" fill="black"/>
</svg>
